<svg version="1.1" xmlns="http://www.w3.org/2000/svg" viewBox="-1085.3545089908155 -3333.291367232106 7206.2090625180645 7303.722525293602"><desc>Created with Snap</desc><defs></defs><g><g transform="matrix(18.7869,0,0,18.7869,-1239.6389,-3438.8189)">
<g id="gSl2p5ltpo1xi">
	<g>
		<g>
			<path d="M367.40915,165.84367c0.61768,2.60449,0.01721-1.06738-0.38635-4.03174
				c-0.19678-1.48242-0.35449-2.78369-0.31274-3.01367c0.03137-0.11719,0.13281,0.02832,0.33252,0.54639
				c0.17444,0.5249,0.42407,1.42822,0.77783,2.81982c-0.146-0.99023-0.30457-2.11865-0.58594-3.3252
				c-0.29688-1.20312-0.6427-2.50293-1.02368-3.87207c-0.39331-1.36523-0.76929-2.81592-1.26233-4.27783
				c-0.51892-1.45264-1.05334-2.94922-1.59338-4.46143c-1.01868-3.04492-2.40552-6.02051-3.56873-8.89111
				c-0.56494-1.44336-1.23328-2.79541-1.8324-4.09766c-0.6012-1.30176-1.16113-2.5415-1.66333-3.69629
				c0.27393-0.78418,1.56018,0.75684,1.94543,0.38867c0.19189-0.18604,0.15698-0.85205-0.34985-2.54199
				c-0.58972-1.64941-1.65552-4.32373-3.62109-8.47852c-1.46033-2.69873-2.6123-4.75049-3.52966-6.30615
				c-0.96558-1.52686-1.72034-2.54395-2.27539-3.24756c-1.12207-1.39941-1.54822-1.48389-1.95032-1.48682
				c-0.40173-0.00244-0.78003,0.07568-1.7926-0.97949c-0.49316-0.53613-1.23059-1.29736-2.18787-2.50635
				c-0.98242-1.19092-2.15833-2.85205-3.80432-4.99414c1.45752,1.98975,2.79407,4.06689,4.1969,6.09229
				c0.34326,0.51172,0.70142,1.01318,1.03235,1.53271l0.96472,1.57715l1.92944,3.15137
				c-1.21167-1.42041-2.49426-3.16553-3.97778-5.07959c-1.53491-1.87842-3.14075-4.01709-4.90869-6.27832
				c-0.91162-1.10938-1.85474-2.25732-2.82483-3.43799c-0.96948-1.18018-1.91992-2.42969-3.00781-3.61133
				c-2.13306-2.39746-4.26746-4.98047-6.68481-7.41846c-4.63855-5.06201-9.98096-9.89502-15.33752-14.47705
				c-1.38342-1.09277-2.75977-2.18018-4.12354-3.25732c-0.68408-0.53564-1.36499-1.06934-2.04199-1.59961
				c-0.70203-0.49658-1.3999-0.99072-2.09302-1.48096c-1.38904-0.97656-2.75903-1.93945-4.10364-2.88476
				c-1.37073-0.90576-2.755-1.73584-4.08911-2.56982c-7.60144-5.61914-15.12061-10.80566-23.87-15.42383
				c-8.76465-4.52441-18.78674-8.51172-31.16602-10.85498c1.38098,0.13623,7.521,1.13574,6.45093,0.27441
				c-1.10107-0.39404-2.43481-0.78857-3.8894-1.17139c-1.45569-0.37842-3.0238-0.78613-4.63184-1.021
				c-1.60107-0.26953-3.2113-0.51611-4.7196-0.73389c-0.75427-0.10596-1.48291-0.20801-2.17261-0.30469
				c-0.69482-0.05664-1.35034-0.11035-1.95288-0.15967c-6.65302-0.19434-5.75879,0.37158-3.8877,1.02686
				c1.87988,0.65576,4.74719,1.40088,2.2439,1.59082c-2.71783-0.16846-5.38287-0.40625-8.117-0.38379
				c-1.36188-0.0249-2.73596-0.0498-4.13312-0.07568c-0.69794-0.00879-1.39948-0.0498-2.11072-0.03955
				c-0.71112,0.01318-1.42932,0.02637-2.15601,0.04004c-2.90527,0.07275-5.93945-0.05371-9.19788,0.10596
				c-1.62927,0.04248-3.31476,0.06787-5.06927,0.07275c-1.7536,0.02246-3.56903,0.1543-5.47076,0.19678
				c-1.58142-0.06738-3.17725-0.21777-4.76306-0.2168l-4.77667-0.01709c-3.20728-0.08398-6.38513,0.17383-9.60614,0.30322
				c-0.75049,0.34326-1.5401,0.62646-2.34509,0.96729c-0.80505,0.34082-1.64038,0.66553-2.5058,0.97754
				c-1.72845,0.6333-3.5871,1.17676-5.54596,1.75732c-1.94324,0.64111-4.00305,1.25537-6.17566,1.8623
				c-0.54297,0.15234-1.09235,0.30664-1.64801,0.4624c-0.54907,0.17725-1.10437,0.35645-1.66583,0.53809
				c-1.12628,0.35449-2.27728,0.71631-3.4527,1.08643c-9.36597,2.99268-20.2431,7.15674-31.10229,14.17969
				c-2.61151,0.53613-9.28107,4.96191-15.58649,9.81884c-3.06207,2.54883-6.20923,4.98096-8.67517,7.17725
				c-1.25995,1.06592-2.41241,1.99756-3.40491,2.72998c-0.99219,0.73291-1.76428,1.33301-2.3714,1.61377
				c-2.19385,2.10596-3.58594,3.06104-4.57172,3.40918c-0.97815,0.35498-1.52826,0.11768-2.07983-0.22412
				c-1.09521-0.66846-2.08862-1.67529-6.05536,1.59473c-1.65436,1.50146-2.67261,2.5752-3.3468,3.20215
				c-0.6698,0.63086-0.96002,0.84766-0.99628,0.78662c-0.07269-0.12109,0.87103-1.35303,1.81732-2.58691
				c0.95923-1.22119,1.99023-2.38135,1.91302-2.51318c-0.03418-0.06152-0.33612,0.14307-1.04095,0.74805
				c-0.72437,0.5874-1.77808,1.64258-3.34473,3.26025c0.77002-0.9502,1.47314-1.78857,2.11786-2.53076
				c0.67468-0.71436,1.2937-1.33008,1.85675-1.86914c1.12781-1.07764,2.04547-1.83789,2.8335-2.39844
				c0.78809-0.56055,1.44672-0.9209,2.05804-1.19922c0.63116-0.25879,1.21356-0.43652,1.83118-0.64844
				c2.5304-0.79248,5.29303-2.45166,15.07043-10.74268l-1.36438,0.31299c0.9679-0.91015,2.06036-1.86181,3.23907-2.84082
				c0.59125-0.4873,1.19598-0.9917,1.83234-1.48145c0.65411-0.46631,1.32147-0.94238,1.9986-1.4248
				c1.36853-0.94385,2.77612-1.91504,4.19269-2.89209c1.42645-0.96094,2.93604-1.81592,4.3808-2.71875
				c1.46387-0.87305,2.86035-1.8042,4.27032-2.59229c1.40607-0.79443,2.74835-1.57275,3.99042-2.32812
				c2.45898-1.55713,4.62646-2.82422,6.06012-4.03223c1.55756-0.76709,2.91205-1.45068,4.11456-1.99854
				c1.22296-0.50293,2.26575-0.93213,3.15088-1.2959c1.77808-0.70557,2.93951-1.10889,3.65808-1.29346
				c1.43683-0.36914,1.10388,0.13428,0.39105,0.84375c-1.43469,1.42969-4.34814,3.63818,2.00897,1.52295
				c1.68573-1.00244,4.70538-2.5874,8.3905-4.2085c1.86554-0.7627,3.8736-1.5835,5.92889-2.42334
				c2.06531-0.82617,4.2356-1.50391,6.33093-2.26416c1.05298-0.36084,2.08557-0.75439,3.10968-1.08057
				c1.0282-0.31494,2.03149-0.62256,2.99762-0.91846c1.93329-0.59521,3.71124-1.19238,5.24609-1.69775
				c3.08929-0.91016,5.15942-1.69678,5.35431-2.24707l-5.31781,0.95703c-1.76624,0.3501-3.51257,0.79736-5.26953,1.19189
				c-3.52747,0.74219-6.97668,1.78809-10.4411,2.77344c3.35663-1.01026,0.63892-0.67627,1.96509-1.23682
				c3.71545-0.63037,8.78564-1.96484,14.22723-3.47949c2.73865-0.66064,5.55127-1.47998,8.34186-2.1543
				c2.80884-0.62939,5.56348-1.24658,8.11633-1.81885c5.15302-0.88525,9.54785-1.64746,11.96143-1.50439
				c2.41626,0.05908,2.80237,0.66211,0.0816,2.20508c-0.71399,0.10645-1.72675,0.18701-2.87891,0.25879
				c-1.14948,0.11914-2.43738,0.25244-3.70648,0.38428c-2.53461,0.28564-4.99292,0.54102-6.06934,1.01807
				c0.61816,0.57568,4.57782,0.48828,9.75818,0.10303c2.59735-0.08057,5.50574-0.17041,8.45569-0.26123
				c2.95044-0.00391,5.9444,0.09229,8.70679,0.18506c2.8573-0.22607,5.82849-0.35156,8.97723-0.54053
				c3.14142-0.10938,6.43994-0.02881,9.95996,0.0625c6.97522,0.54053,14.85242,1.53271,23.4248,4.57861
				c2.97144,1.01025,3.46997,1.54492,3.98291,2.0293c0.5105,0.48877,1.02002,0.97705,3.89978,2.14648
				c1.09583,0.33594,2.17517,0.61133,3.18494,0.97705c1.01208,0.36182,1.99121,0.71143,2.93945,1.05029
				c1.8894,0.69922,3.67957,1.30518,5.31311,1.99805c1.62366,0.71729,3.14539,1.39014,4.58301,2.02539
				c1.43225,0.64795,2.78577,1.24805,4.01587,1.93506c2.47913,1.33301,4.70752,2.51562,6.7439,3.75293
				c2.01343,1.2793,3.89148,2.50928,5.77405,3.75c1.87671,1.25049,3.672,2.65234,5.65564,4.05615
				c2.0022,1.37842,4.01672,3.02539,6.33728,4.78125c4.63293,3.52197,10.15466,7.96338,17.30029,14.33398
				c8.15955,8.76904,16.8114,18.81299,24.21375,29.78369c7.45288,10.9165,13.41748,22.8501,17.03748,34.12402
				c-0.04517-0.95166,0.32324-0.53125,0.92981,0.71387c0.3031,0.62207,0.66541,1.44971,1.06433,2.41309
				c0.1958,0.48291,0.40454,0.99805,0.62305,1.53711c0.20178,0.54541,0.38513,1.12451,0.58411,1.71582
				c0.76733,2.37402,1.64697,4.99023,2.28992,7.33984c0.59131,2.36328,1.10474,4.41553,1.39844,5.58936
				c0.26929,1.67529,0.76013,5.77734,1.62219,10.53467c0.31018,2.40479,0.66614,4.98682,1.078,7.5376
				c0.39539,2.55371,0.64282,5.1084,1.04712,7.41748c-0.72485-5.47559-0.85474-2.07275-1.64197-5.82812
				c0.40344,2.59473,0.7356,4.93164,1.00537,7.03369c0.15515,1.04932,0.2179,2.04736,0.271,2.98926
				c0.04871,0.94189,0.0946,1.82764,0.1377,2.66064c0.06982,1.6665,0.09839,3.12158,0.09167,4.39307
				c-0.07068,1.2749-0.16577,2.36523-0.27832,3.2998c-0.45007,3.73682-1.17896,4.97461-1.73645,5.55713
				c-0.3175-4.00488-0.57812-7.10107-1.02991-9.76807c-0.49988-2.64941-0.92578-4.90576-1.36682-7.24365
				c-0.52222-2.31934-1.04785-4.71484-1.51819-7.69141c-0.22461-1.49072-0.60449-3.1001-0.90076-4.93066
				C368.1268,170.1718,367.9028,168.11711,367.40915,165.84367z" fill="#9c1f16" style=""></path>
			<path d="M48.84366,129.38469c-0.23047-2.4165-4.23279,5.49023-6.89716,12.05127
				c-1.34241,3.26953-2.38031,6.17627-2.99274,7.06396c-0.58893,0.89209-0.66217-0.18799,0.19458-4.88672
				c-0.56348,1.51758-1.08856,2.93164-1.58093,4.25781c-0.23877,0.6665-0.46967,1.31055-0.6933,1.93457
				c-0.18719,0.63574-0.36829,1.25098-0.54395,1.84766c-0.69147,2.39014-1.25323,4.49658-1.72943,6.43799
				c-0.38074,1.96631-0.68292,3.76562-0.94763,5.52051c-0.12506,0.87744-0.2486,1.74365-0.3728,2.61475
				c-0.11615,0.87109-0.15607,1.76074-0.23425,2.6626c0.21869-0.89795,0.39429-1.67139,0.5722-2.32666
				c0.19867-0.65088,0.36377-1.19141,0.49957-1.63574c0.27753-0.88623,0.44952-1.38477,0.54803-1.60742
				c0.19696-0.44482,0.1001,0.21143-0.03693,1.07568c-0.27472,1.73193-0.70673,4.28027,0.7218,0.56299
				c-4.37756,23.0791-4.15271,46.34326,0.07977,68.32227c4.23889,21.99072,12.60101,42.69728,24.2392,60.9424
				c0.49884,0.87939,0.99585,1.75537,1.49115,2.62793c0.49872,0.87207,1.06812,1.69287,1.60052,2.53613
				c1.08643,1.6709,2.16235,3.33838,3.26984,4.97021c2.3595,3.15479,4.61407,6.34961,7.18707,9.23926
				c4.9422,5.95312,10.45312,11.23145,16.19635,16.1123l4.38751,3.55713c1.47552,1.16406,3.03143,2.2251,4.5448,3.3335
				l2.28632,1.64014c0.7594,0.54932,1.57141,1.02783,2.35498,1.54346c1.58014,1.0083,3.1618,2.01807,4.74622,3.0293
				c1.6189,0.9541,3.26715,1.86426,4.90216,2.7959l2.45947,1.38818l2.53412,1.27002
				c1.69043,0.83936,3.38623,1.68115,5.08868,2.52637c1.73846,0.7627,3.4837,1.52832,5.237,2.29736
				c2.03705,1.19141,3.72339,2.00049,5.00049,2.72314c1.28241,0.71143,2.18787,1.26904,2.78589,1.7002
				c1.19598,0.86279,1.16156,1.21826,0.45062,1.28955c-1.41675,0.14404-5.56433-0.85986-7.84851-1.16699
				c7.29828,3.42969,14.77112,6.49805,22.4574,8.95898c-7.92438-1.9585-15.70209-4.57031-23.37128-7.58105
				c-0.57397,0.28223,1.66327,1.56641,4.71448,3.19678c0.76532,0.4043,1.57843,0.8335,2.4104,1.27246
				c0.83917,0.42432,1.71954,0.80859,2.57678,1.21973c1.72003,0.80908,3.39386,1.6167,4.76776,2.34961
				c2.19379,0.73584,4.42957,1.34766,6.63782,2.0249c-4.57007,0.9209-16.49695-3.26172-28.99719-10.4126
				c-1.58936-0.83984-3.1048-1.87549-4.68475-2.82568c-1.5542-0.99463-3.17737-1.90625-4.69995-2.98975
				c-3.06635-2.13086-6.19861-4.18604-9.09143-6.44629c-1.45905-1.10986-2.94342-2.15088-4.33917-3.25586
				c-1.39301-1.10791-2.76086-2.19629-4.09406-3.25684c-0.6734-0.52197-1.33801-1.03662-1.99268-1.54395
				c-0.63623-0.52979-1.26276-1.05176-1.87848-1.56445c-1.23694-1.01953-2.44403-1.98779-3.61536-2.89551
				c2.72906,2.28711,4.68622,4,6.18188,5.08936c1.49249,1.09326,2.40045,1.7124,2.8866,1.98828
				c0.97217,0.55225,0.258-0.26611-0.84027-1.40967c-0.55103-0.56836-1.19031-1.22754-1.77563-1.83105
				c-0.57922-0.60742-1.0556-1.21338-1.33832-1.60596c-0.54749-0.80664-0.26337-0.82568,2.15839,0.90381
				c-2.22156-1.91748-4.38086-3.90674-6.57098-5.85449c1.48816,1.27344,3.38855,2.80371,5.6377,4.58154
				c1.11017,0.90625,2.41046,1.74951,3.73853,2.7168c1.34741,0.94238,2.74988,1.979,4.27716,3.00537
				c6.14276,4.06543,13.74554,8.6709,22.66351,13.2832c-1.56335-0.77637-3.0415-1.70703-4.5528-2.5752
				c-1.50024-0.8877-3.02118-1.73926-4.50513-2.64941l-4.38574-2.83252l-2.19318-1.41064l-2.12531-1.50781l-4.24579-3.01025
				c-1.40051-1.02051-2.7403-2.11963-4.11328-3.17139c-2.77521-2.07031-5.35889-4.36084-7.98566-6.58643
				c-1.33606-1.08838-2.55975-2.29688-3.82159-3.45996c-1.25378-1.17236-2.50543-2.34326-3.75482-3.51172
				c-1.198-1.22168-2.39386-2.44092-3.58728-3.65771l-1.79224-1.82227c-0.5932-0.61035-1.1413-1.26074-1.71393-1.8877
				c-1.13538-1.26416-2.26825-2.52539-3.39844-3.78418c-1.14832-1.24463-2.16022-2.59766-3.24573-3.88574
				c-1.05615-1.31152-2.16144-2.58203-3.17444-3.91748c-1.00342-1.34326-2.00409-2.68359-3.00183-4.01953l-1.49854-2.00146
				l-1.40399-2.05859c-0.93292-1.37354-1.86298-2.74268-2.78992-4.10742c-0.95142-1.35107-1.74567-2.79297-2.62433-4.17871
				c-0.85254-1.40088-1.72894-2.78369-2.55804-4.18701c-0.78821-1.42676-1.57349-2.84863-2.35571-4.26514
				c-0.77429-1.42188-1.59991-2.81299-2.27881-4.26953c-0.71216-1.44238-1.42139-2.87842-2.12756-4.30859
				c-0.34888-0.71729-0.71851-1.4248-1.04919-2.14697l-0.95123-2.17969c-5.16998-11.56154-8.96674-23.27687-11.5257-34.68703
				c0.51685,1.29395,1.51318,4.8042,1.08191,0.60303c-0.33289-2.06006-0.77661-3.99316-1.06873-5.85156
				c-0.29547-1.85791-0.60968-3.61523-0.93561-5.28369c-0.16998-0.8335-0.33551-1.64551-0.49683-2.43701
				c-0.13531-0.79443-0.26715-1.56836-0.39563-2.32227c-0.2666-1.50781-0.54187-2.93701-0.81799-4.2959
				c-0.61115-2.71484-0.93829-5.16455-1.35358-7.39404c-0.38263-2.23047-0.75903-4.24707-0.85248-6.10889l0.1358,1.85986
				c0.05762,0.61963,0.14673,1.23828,0.21869,1.85645l0.45691,3.70068c0.19275-2.62891,0.16223-5.65771,0.30548-8.93018
				c0.03973-1.63574,0.05658-3.33301,0.05774-5.07031c0.03601-1.73584,0.14618-3.5083,0.20038-5.30225
				c0.18158-7.17871,0.93182-14.63037,1.99585-20.89062c0.93976-3.3418,2.02399-6.33887,2.97211-9.35303
				c1.08569-2.97119,2.17151-5.94238,3.35809-9.18945c0.63928-1.60498,1.28723-3.28174,1.95184-5.06787
				c0.34021-0.89014,0.65106-1.82031,1.0282-2.75977c0.38214-0.93799,0.77637-1.90527,1.18451-2.90723
				c1.5462-4.04053,3.46796-8.56006,5.79456-13.88184l0.50226,1.12109l2.23712-4.09473
				c0.76099-1.35547,1.45013-2.74854,2.29144-4.05762l2.42957-3.9751l1.21393-1.98486l1.30103-1.93018
				c-1.19275,1.97754-1.38593,2.65234-1.25293,2.71045c0.14056,0.0625,0.60187-0.49365,0.95874-0.83984
				c-0.46429,1.29297-1.08112,2.02393-2.81158,4.78125c0.33533,0.86182,2.12299-0.52637,4.54169-3.11768
				c2.57727-2.49902,5.72345-6.2417,9.13232-9.97461c-0.95892,1.26025-1.91779,2.52002-2.8067,3.68848
				c-0.84418,1.2002-1.5636,2.34766-2.14026,3.31201c2.34918-3.37012,8.13586-10.50049,12.51117-15.08936
				c4.52588-4.48096,7.29089-6.6792,3.27258-0.93994c-0.9696,1.09717-1.87604,2.12598-2.67328,3.13965
				c-0.81702,0.99707-1.59277,1.92285-2.33295,2.78809c-0.73138,0.87207-1.46478,1.65479-2.09991,2.43848
				c-0.64423,0.77686-1.25073,1.50879-1.82678,2.20361c-1.16626,1.38086-2.25769,2.58301-3.27374,3.71631
				c-0.9848,1.15869-1.9032,2.23926-2.81219,3.30859c-0.90662,1.07471-1.8526,2.11523-2.74335,3.28369
				c-0.87836,1.17578-1.78339,2.42969-2.74847,3.84717c-0.48248,0.70898-0.98004,1.4585-1.49664,2.25928
				c-0.49432,0.81299-0.9726,1.6958-1.48926,2.63232c-0.51239,0.93896-1.04517,1.94043-1.60181,3.01562
				c-0.27551,0.53906-0.55969,1.09473-0.85321,1.66895C49.37656,128.14104,49.11996,128.75529,48.84366,129.38469z" fill="#9c1f16" style=""></path>
			<path d="M114.19815,48.68938c-1.00085,0.51123-1.85901,0.9502-2.58942,1.32324c-0.71906,0.39307-1.31226,0.7168-1.79431,0.98047
				c-0.96814,0.51953-1.5058,0.77197-1.72504,0.82471c-0.4386,0.10498,0.39716-0.58838,1.60327-1.52637
				c1.18591-0.9707,2.83459-2.03418,3.8974-2.85938c1.06763-0.81641,1.57971-1.34619,0.58496-1.06885l3.5119-2.04443
				c1.18909-0.64795,2.39996-1.25635,3.59943-1.88623l3.60785-1.87305c1.19696-0.63623,2.4527-1.15137,3.6767-1.73291
				c0.2193,0.1958-0.53857,0.76611-1.80951,1.5332c-1.27045,0.77246-3.00732,1.82812-4.80103,2.91846
				C118.32108,45.35344,114.67038,47.90276,114.19815,48.68938z" fill="#9c1f16" style=""></path>
			<path d="M230.74069,368.3349c0.78955,0.28271,3.92273-0.09131,7.60229-0.8042c3.65894-0.81494,7.89954-1.77441,10.92896-2.60352
				c1.46545-0.51904,2.7926-0.98877,4.026-1.42578c1.21936-0.47314,2.32251-0.97656,3.38586-1.42676
				c1.0592-0.45703,2.0708-0.89307,3.07776-1.32764c0.50354-0.21387,1.00586-0.42725,1.51257-0.64209
				c0.49829-0.23682,1.00073-0.47559,1.5127-0.71875c2.04138-0.98535,4.29028-1.89893,7.00073-3.12451
				c2.67786-1.29883,5.96484-2.58057,9.94775-4.5791c-5.58704,4.3335-2.02197,3.396,4.62488,0.74854
				c1.64441-0.68652,3.42529-1.57373,5.31921-2.46484c0.94324-0.45557,1.90784-0.92139,2.88086-1.39111
				c0.94946-0.51465,1.9071-1.03369,2.86035-1.55029c0.9574-0.51514,1.91016-1.02832,2.84595-1.53223
				c0.46985-0.25049,0.93555-0.49854,1.39526-0.74365c0.44836-0.2627,0.89087-0.52246,1.32617-0.77783
				c1.74133-1.02246,3.38196-1.95996,4.82971-2.74023c-1.81567,1.36279-3.92053,3.14844-6.39172,4.98242
				c-1.2511,0.89844-2.56726,1.84375-3.9325,2.82373c-0.68835,0.48535-1.38892,0.979-2.09998,1.47998
				c-0.7356,0.46289-1.48206,0.93262-2.23706,1.40771c-1.51453,0.94531-3.07336,1.90088-4.66223,2.84912
				c-1.62354,0.88428-3.29114,1.73535-4.96594,2.5752l-2.52368,1.2334c-0.85437,0.38086-1.72559,0.72119-2.58765,1.06885
				c-1.72815,0.68701-3.45374,1.33252-5.15881,1.91895c0.64978-0.66943-2.05359,0.10938-5.67566,1.26074
				c-0.90137,0.29834-1.8623,0.61621-2.84436,0.94141c-0.99414,0.2876-2.00964,0.58105-3.00708,0.86963
				c-1.98853,0.58398-3.90527,1.14697-5.43677,1.59668c-4.54016,1.95801-2.39148,2.36426-3.9071,3.71094
				c-0.77087,0.64551-2.43225,1.6792-6.46021,2.90088c-2.01392,0.60498-4.57104,1.47852-7.94458,2.14062
				c-1.68445,0.35107-3.55237,0.74072-5.62488,1.17236c-2.08972,0.33398-4.39465,0.65479-6.9281,1.01367
				c-1.87097,0.18164-4.43811,0.2876-7.20575,0.48535c-1.38458,0.08545-2.81897,0.21631-4.2486,0.27783
				c-1.43115,0.02441-2.85443,0.04932-4.2099,0.07227c-1.35529,0.01709-2.64252,0.02393-3.80127,0.01367
				c-1.15875,0-2.18896-0.12842-3.03015-0.20801c-1.68292-0.18994-2.60785-0.44238-2.30322-0.79492
				c-1.28625-0.16113-2.55377-0.17676-3.82501-0.13086c-1.26996,0.0249-2.54291,0.0498-3.83173,0.0752
				c-1.29053,0.02148-2.60028,0.02002-3.93732-0.08887c-1.33936-0.08252-2.69727-0.36084-4.08063-0.84766l-2.77875-0.95557
				c8.37946,0.8916,16.81311,0.94775,25.18054,0.60547c0.92462,0.17676,2.84241,0.52588,5.13184,0.38525
				c-1.19769-0.22314-0.09033-0.49268,1.96747-0.84326c2.0545-0.43213,5.05841-0.95312,7.68469-1.46875
				c5.24652-1.21777,8.92059-2.47656,0.88208-2.31104c-11.19348,1.17334-22.51001,1.24072-33.72198,0.2251
				c-2.034-0.28467-2.81238-0.6377-2.67511-0.77539c0.14014-0.16357,1.20184-0.17334,2.89935-0.23486
				c1.69519-0.03662,4.01422-0.01221,6.65753,0.06641c2.64905-0.01904,5.62701-0.06836,8.63501-0.03467
				c2.18903,0.11279,4.0943,0.13379,5.77313,0.18896c1.67755,0.02148,3.13403,0.12891,4.41272,0.04688
				c2.56165-0.09082,4.45239-0.19482,6.14777-0.34277c1.69952-0.10938,3.18524-0.44482,4.96173-0.78271
				c0.88525-0.18213,1.84302-0.37988,2.93237-0.604C228.13474,368.97748,229.35153,368.7226,230.74069,368.3349z" fill="#9c1f16" style=""></path>
			<path d="M147.48001,364.63031l-1.62543-0.9707c2.3728,0.74902,4.72131,1.5708,7.10956,2.26074l7.19928,1.94287l7.28125,1.59033
				c1.20764,0.29053,2.43933,0.4624,3.66339,0.66943l3.67419,0.60645C165.54178,369.51996,156.40945,367.41595,147.48001,364.63031z
				" fill="#9c1f16" style=""></path>
			<path d="M325.07785,317.84808c-0.91016,1.10938-1.81714,2.15967-2.75562,3.14453
				c-0.97021,0.95312-1.94373,1.86914-2.91626,2.78467c-0.96753,0.92041-1.93445,1.84082-2.91821,2.77686
				c-1.0127,0.9043-2.02246,1.84668-3.02966,2.8667l-1.71619-0.94385l3.4436-2.49854
				c1.15515-0.82959,2.22412-1.75879,3.34448-2.63525l3.33472-2.67383C322.952,319.74945,324.00302,318.789,325.07785,317.84808z" fill="#9c1f16" style=""></path>
			<path d="M53.1373,298.69427c-1.44421-1.51221-3.289-3.72998-5.00104-6.47803c-0.88239-1.3584-1.79388-2.81104-2.71576-4.30762
				c-0.90033-1.50781-1.72198-3.10791-2.58453-4.67529c-0.82697-1.58496-1.74976-3.11279-2.46259-4.67383
				c-0.76086-1.53906-1.49377-3.02197-2.17584-4.40186c-1.44995-2.72412-2.49603-5.12451-3.48999-6.60107
				c2.07806,5.34521,1.70129,3.3584,2.49884,4.53662c-0.61615-1.73389-1.18805-3.48389-1.78125-5.22217
				c-0.58258-1.74219-1.20447-3.4668-1.67096-5.24561C39.34091,274.00824,44.74423,286.18109,53.1373,298.69427z" fill="#9c1f16" style=""></path>
			<path d="M357.26498,270.21088c0.48315-1.12012,0.95471-2.17773,1.36316-3.2041c0.37158-1.04053,0.72522-2.03125,1.06396-2.98047
				c0.6499-1.90674,1.28442-3.62646,1.74866-5.2876c0.44092-1.66553,0.85388-3.22462,1.2561-4.74367
				c0.19763-0.75781,0.3927-1.50537,0.58716-2.25098c0.18469-0.74805,0.32263-1.50732,0.49072-2.26367
				c0.63672-3.03467,1.43127-6.11963,2.17102-9.87891c0.88049-3.72607,1.74292-8.10547,2.87744-13.6582
				c1.14502-4.82568,0.12646,6.17236,1.479-0.87598c1.40063-7.04883,0.6366-8.82764,0.55798-12.33203l-0.80359,2.69385
				c0.38806-1.33936,0.87378-3.42578,1.28186-5.67627c0.34558-2.25342,0.70264-4.66504,1.07336-6.63135
				c0.71729-3.96484,1.39856-6.19482,2.40039-1.49365c-0.08203,1.81494-0.14246,3.56787-0.18433,5.26562
				c-0.06165,1.69727-0.01404,3.34424-0.14343,4.93408c-0.07483,1.59326-0.14746,3.1377-0.21802,4.63965
				c-0.05457,1.50391-0.08118,2.96875-0.21521,4.38721c-0.23291,2.83936-0.30469,5.55957-0.55188,8.16113
				c-0.25525,2.60889-0.50073,5.11865-0.74121,7.57617c-0.35986,2.44189-0.72034,4.83984-1.11414,7.2334
				c-0.3938,2.39307-1.02209,4.73047-1.60681,7.12744c-0.55798,2.40674-1.41956,4.77148-2.30688,7.22316
				c-0.46167,1.21924-0.90002,2.47217-1.45776,3.71143c-0.56873,1.23486-1.16858,2.48828-1.80396,3.76367
				c-1.09302,0.98389-2.16284,1.96143-3.25867,2.91211l-2.55432,6.25098c-0.40649,1.05322-0.88574,2.07178-1.36743,3.09033
				l-1.43079,3.06543c-0.29968,0.36572-0.51221,0.40771-0.88794,0.86865c-0.38025,0.4585-0.88306,1.35547-1.95715,3.33252
				c-1.98523,4.26514-0.93176,2.89014,0.68982,0.56543c0.40454-0.58203,0.84766-1.21973,1.28162-1.84424
				c0.40601-0.64062,0.80505-1.26709,1.16736-1.80127c0.72339-1.06787,1.29187-1.76904,1.41736-1.48779
				c-0.91187,1.99951-1.80017,4.01611-2.849,5.94971c-1.02271,1.94678-1.99255,3.93018-3.06384,5.85645l-3.31934,5.72803
				c-1.11084,1.91064-2.37097,3.72559-3.55261,5.59766c-1.9718,2.57178,1.09924-2.5166,0.38257-1.85059
				c-1.00293,1.20605-1.91333,2.38477-2.75562,3.5415c-0.89209,1.11963-1.72253,2.2124-2.50134,3.29248
				c-0.77979,1.0791-1.51282,2.1416-2.22144,3.18994c-0.72583,1.03418-1.47693,2.01367-2.19727,3.00293
				c-2.85254,3.97559-5.90186,7.58447-10.32104,10.79443c0.94409-0.98438,1.8092-2.04541,2.68494-3.09229l2.62427-3.13623
				c0.89209-1.02637,1.71533-2.11279,2.53223-3.20264l2.46375-3.24805c-6.37744,7.47461-12.76868,13.26416-18.8501,18.17773
				c-6.04272,4.97949-12.03076,8.80518-17.78955,12.44189c8.10327-5.37549,14.64819-11.07275,20.29944-16.74365
				c1.37537-1.4541,2.72559-2.88184,4.05566-4.28809c1.30762-1.42383,2.49805-2.91699,3.71863-4.34424
				c0.60315-0.71875,1.20288-1.43408,1.79968-2.14551c0.59229-0.71436,1.12878-1.47168,1.69104-2.19971
				c1.10925-1.46484,2.20996-2.91846,3.30652-4.36621c1.03259-1.4917,2.0614-2.97754,3.09058-4.46436l1.54517-2.22168
				c0.50671-0.74658,0.97095-1.52539,1.4624-2.28613c0.97937-1.521,1.96301-3.04883,2.9552-4.58984
				c0.94104-1.5708,1.89001-3.15527,2.85095-4.75977c0.4884-0.7959,0.97974-1.59717,1.47473-2.40381
				c0.46228-0.82617,0.92786-1.6582,1.39722-2.49756c0.95532-1.66748,1.92603-3.3623,2.91626-5.09082
				c0.92981-1.76123,1.89722-3.54736,2.90979-5.36572c0.25281-0.45459,0.50708-0.91211,0.76294-1.37256
				c0.23645-0.46973,0.47424-0.94189,0.7135-1.41748C356.27219,272.14154,356.76547,271.18207,357.26498,270.21088z" fill="#9c1f16" style=""></path>
		</g>
		<circle cx="200" cy="200" r="161.72063" fill="#9c1f16" style=""></circle>
	</g>
</g>


<desc>Created with Snap</desc><defs></defs></g><g><g transform="matrix(0.5,0,0,-0.5,0,0)"><path d="M1150 1059Q1150 987 1123 924Q1096 861 1050 808Q1005 756 945 714Q885 672 819 643Q753 615 684 599Q616 584 554 584L548 584L548 604Q638 615 722 659Q807 704 872 772Q938 840 977 926Q1017 1012 1017 1106Q1017 1157 1003 1198Q990 1240 963 1269Q937 1299 897 1315Q857 1331 804 1331Q697 1331 610 1285Q524 1240 457 1164Q390 1089 341 991Q293 893 261 787Q230 681 215 574Q200 468 200 377Q200 304 209 229Q219 155 240 86Q261 17 294 -44Q327 -104 373 -149Q420 -194 481 -220Q542 -246 620 -246Q674 -246 724 -226Q774 -206 818 -173Q862 -140 897 -98Q933 -56 958 -12L970 -18Q953 -80 912 -140Q871 -200 814 -247Q758 -293 691 -322Q625 -350 558 -350Q469 -350 397 -323Q325 -295 268 -247Q212 -198 171 -133Q130 -67 103 9Q76 86 63 169Q50 253 50 337Q50 447 73 567Q96 687 141 803Q186 919 251 1023Q317 1128 402 1207Q487 1287 590 1333Q694 1380 814 1380Q889 1380 951 1358Q1013 1337 1057 1296Q1102 1255 1126 1195Q1150 1136 1150 1059ZM1757 295Q1757 225 1734 165Q1711 105 1669 61Q1627 17 1568 -8Q1510 -33 1439 -33Q1376 -33 1325 -10Q1275 14 1239 54Q1203 94 1184 147Q1165 201 1165 262Q1165 313 1179 359Q1194 405 1220 444Q1246 484 1282 517Q1318 551 1360 578L1372 569Q1330 520 1306 461Q1282 402 1282 336Q1282 288 1296 238Q1311 189 1339 148Q1367 107 1409 81Q1451 55 1505 55Q1539 55 1569 69Q1599 83 1621 107Q1644 131 1657 161Q1671 192 1671 225Q1671 257 1661 287Q1652 318 1635 344Q1618 371 1594 392Q1570 414 1542 428Q1526 436 1511 440Q1497 444 1480 449Q1473 450 1465 452Q1457 455 1450 458Q1443 462 1438 468Q1433 474 1433 483Q1433 501 1446 516Q1459 531 1477 542Q1495 554 1515 560Q1535 567 1550 567Q1601 567 1640 541Q1679 515 1705 475Q1731 435 1744 387Q1757 339 1757 295ZM2371 594L2381 580Q2363 564 2332 548Q2301 533 2262 518Q2223 504 2178 491Q2134 478 2090 468Q2091 336 2089 204Q2087 72 2076 -60Q2066 -191 2044 -320Q2023 -449 1984 -573L1959 -573L1959 443Q1934 439 1913 437Q1892 436 1876 436Q1856 436 1837 438Q1819 441 1804 449Q1790 458 1781 473Q1772 488 1772 514Q1772 545 1792 562Q1812 580 1841 580Q1870 580 1899 577Q1929 575 1959 572L1959 575Q1959 646 1962 731Q1966 817 1979 903Q1993 989 2019 1070Q2045 1151 2090 1213Q2136 1276 2204 1314Q2272 1352 2369 1352Q2420 1352 2459 1334Q2498 1316 2524 1284Q2550 1253 2563 1210Q2576 1168 2576 1120Q2576 1068 2557 1018Q2538 968 2507 924Q2476 880 2435 843Q2395 807 2352 782L2342 805Q2371 831 2392 865Q2414 900 2428 939Q2442 978 2448 1018Q2455 1059 2455 1098Q2455 1132 2447 1168Q2439 1204 2422 1233Q2405 1263 2377 1281Q2349 1300 2309 1300Q2252 1300 2213 1269Q2175 1238 2150 1189Q2126 1140 2113 1078Q2100 1016 2094 954Q2089 893 2088 837Q2088 781 2088 743Q2088 698 2088 653Q2088 608 2089 563Q2158 563 2231 568Q2305 574 2371 594ZM2895 594L2905 580Q2887 564 2856 548Q2825 533 2786 518Q2747 504 2702 491Q2658 478 2614 468Q2615 336 2613 204Q2611 72 2600 -60Q2590 -191 2568 -320Q2547 -449 2508 -573L2483 -573L2483 443Q2458 439 2437 437Q2416 436 2400 436Q2380 436 2361 438Q2343 441 2328 449Q2314 458 2305 473Q2296 488 2296 514Q2296 545 2316 562Q2336 580 2365 580Q2394 580 2423 577Q2453 575 2483 572L2483 575Q2483 646 2486 731Q2490 817 2503 903Q2517 989 2543 1070Q2569 1151 2614 1213Q2660 1276 2728 1314Q2796 1352 2893 1352Q2944 1352 2983 1334Q3022 1316 3048 1284Q3074 1253 3087 1210Q3100 1168 3100 1120Q3100 1068 3081 1018Q3062 968 3031 924Q3000 880 2959 843Q2919 807 2876 782L2866 805Q2895 831 2916 865Q2938 900 2952 939Q2966 978 2972 1018Q2979 1059 2979 1098Q2979 1132 2971 1168Q2963 1204 2946 1233Q2929 1263 2901 1281Q2873 1300 2833 1300Q2776 1300 2737 1269Q2699 1238 2674 1189Q2650 1140 2637 1078Q2624 1016 2618 954Q2613 893 2612 837Q2612 781 2612 743Q2612 698 2612 653Q2612 608 2613 563Q2682 563 2755 568Q2829 574 2895 594ZM3520 147L3528 143Q3502 105 3465 72Q3429 39 3385 15Q3342 -9 3294 -23Q3247 -37 3199 -37Q3131 -37 3072 -20Q3013 -2 2969 34Q2925 70 2900 124Q2875 179 2875 252Q2875 324 2901 386Q2928 449 2974 495Q3021 542 3084 569Q3147 596 3219 596Q3253 596 3282 586Q3312 577 3334 558Q3356 540 3368 513Q3381 486 3381 451Q3381 409 3364 377Q3347 345 3319 321Q3291 297 3255 281Q3220 265 3181 255Q3143 245 3105 240Q3068 236 3037 236L3013 236Q3026 145 3085 97Q3144 49 3248 49Q3322 49 3392 75Q3463 101 3520 147ZM3010 289L3010 266L3035 266Q3071 266 3109 277Q3147 289 3177 311Q3208 334 3228 367Q3248 400 3248 442Q3248 483 3230 510Q3213 537 3170 537Q3126 537 3095 510Q3065 484 3046 445Q3027 407 3018 364Q3010 322 3010 289ZM3840 652L3829 638Q3731 684 3654 743Q3578 803 3516 888L3644 974Q3661 923 3682 880Q3703 837 3727 798Q3752 760 3780 724Q3809 688 3840 652ZM4538 215Q4538 163 4519 117Q4500 71 4466 37Q4432 3 4386 -17Q4341 -37 4288 -37Q4253 -37 4219 -26Q4185 -15 4156 5Q4128 26 4107 55Q4086 84 4077 119L4100 125Q4126 93 4160 72Q4195 51 4239 51Q4276 51 4307 67Q4339 83 4361 109Q4384 135 4396 169Q4409 204 4409 240Q4409 283 4397 311Q4385 340 4365 359Q4346 379 4322 393Q4298 408 4273 423Q4249 438 4226 457Q4204 476 4188 506Q4187 447 4168 382Q4149 317 4116 256Q4084 195 4042 142Q4000 89 3953 53L3945 67Q3977 101 4001 152Q4025 203 4040 259Q4056 316 4063 373Q4071 430 4071 477Q4071 502 4066 526Q4061 550 4061 573Q4061 601 4077 616Q4094 631 4120 631Q4140 631 4152 622Q4164 613 4174 598Q4184 584 4194 565Q4204 547 4219 527Q4235 508 4258 489Q4282 471 4319 457Q4362 441 4401 420Q4441 400 4471 372Q4502 344 4520 305Q4538 267 4538 215ZM7266 -444L7272 -464Q7238 -489 7198 -498Q7159 -507 7119 -507Q6982 -507 6875 -467Q6769 -426 6688 -355Q6608 -284 6551 -188Q6495 -92 6457 19Q6420 130 6400 251Q6380 372 6373 492Q6366 613 6369 728Q6373 844 6383 943Q6365 916 6339 857Q6313 798 6281 719Q6250 640 6216 546Q6182 453 6148 358Q6115 263 6083 171Q6052 80 6027 5Q6003 -70 5985 -123Q5968 -175 5963 -193Q5959 -205 5952 -223Q5946 -241 5936 -258Q5927 -275 5914 -287Q5902 -299 5886 -299Q5868 -299 5856 -285Q5844 -270 5836 -250Q5829 -230 5824 -210Q5820 -190 5818 -178Q5812 -136 5807 -72Q5802 -8 5798 70Q5795 148 5793 236Q5791 325 5789 414Q5788 504 5787 590Q5787 677 5786 752Q5786 828 5786 888Q5786 948 5786 984Q5764 934 5733 857Q5703 780 5667 684Q5632 588 5593 477Q5555 367 5517 250Q5480 133 5445 14Q5411 -105 5384 -217Q5381 -227 5376 -242Q5372 -256 5365 -269Q5358 -282 5347 -292Q5337 -301 5322 -301Q5308 -301 5297 -292Q5286 -283 5278 -271Q5271 -258 5266 -244Q5262 -229 5261 -217Q5256 -192 5252 -162Q5249 -132 5246 -101Q5244 -69 5242 -39Q5240 -8 5238 18Q5227 155 5222 289Q5218 423 5218 559Q5218 693 5222 825Q5227 957 5236 1092Q5239 1131 5245 1179Q5251 1228 5268 1271Q5286 1314 5319 1343Q5353 1372 5411 1372Q5425 1372 5435 1365Q5445 1359 5445 1343L5445 1333Q5436 1273 5427 1213Q5418 1154 5408 1092Q5384 892 5367 692Q5351 493 5351 291Q5351 212 5354 135Q5357 58 5365 -20Q5434 194 5486 359Q5539 524 5579 648Q5619 772 5646 859Q5674 947 5693 1006Q5712 1065 5723 1100Q5734 1136 5741 1155Q5748 1175 5751 1184Q5754 1193 5757 1200Q5772 1234 5798 1261Q5824 1288 5865 1288Q5893 1288 5910 1274Q5928 1260 5938 1239Q5948 1218 5951 1193Q5955 1168 5955 1147Q5953 992 5946 840Q5939 689 5934 540Q5929 391 5929 244Q5930 97 5943 -49Q5983 69 6017 173Q6051 278 6081 373Q6112 468 6140 556Q6169 644 6199 730Q6230 816 6263 902Q6296 988 6336 1079Q6345 1097 6356 1115Q6367 1134 6381 1149Q6395 1164 6413 1174Q6431 1184 6453 1184Q6484 1184 6502 1164Q6520 1144 6529 1116Q6539 1088 6542 1057Q6545 1027 6545 1006Q6545 914 6539 802Q6533 691 6530 571Q6528 451 6533 328Q6538 205 6560 90Q6582 -25 6625 -125Q6668 -225 6741 -300Q6814 -374 6921 -417Q7029 -460 7180 -460Q7203 -460 7224 -457Q7246 -453 7266 -444ZM7056 807Q7056 787 7047 767Q7038 747 7023 731Q7009 716 6990 706Q6971 696 6951 696Q6925 696 6909 713Q6894 730 6894 756Q6894 776 6903 795Q6912 815 6926 830Q6941 845 6959 854Q6978 864 6998 864Q7024 864 7040 848Q7056 832 7056 807ZM7330 147L7336 143Q7313 105 7281 73Q7250 42 7212 18Q7175 -5 7132 -18Q7090 -31 7045 -31Q6989 -31 6945 -12Q6902 7 6872 40Q6843 74 6827 119Q6812 165 6812 219Q6812 277 6829 329Q6846 381 6876 426Q6906 472 6946 510Q6987 548 7033 578L7045 569Q6996 511 6965 439Q6935 367 6935 289Q6935 244 6945 202Q6956 161 6978 129Q7001 97 7036 78Q7071 59 7121 59Q7180 59 7233 84Q7287 109 7330 147ZM8144 147L8151 143Q8132 107 8110 74Q8089 41 8062 16Q8035 -9 8001 -24Q7967 -39 7923 -39Q7873 -39 7837 -15Q7801 10 7775 50Q7750 91 7734 143Q7719 195 7709 249Q7699 303 7694 355Q7689 408 7685 450Q7666 435 7639 392Q7612 350 7584 293Q7556 236 7530 169Q7505 102 7489 37Q7486 23 7479 8Q7473 -7 7463 -20Q7454 -32 7441 -41Q7428 -49 7412 -49Q7386 -49 7374 -31Q7363 -13 7358 10Q7329 137 7317 253Q7306 369 7306 485Q7306 513 7315 533Q7325 554 7341 567Q7357 581 7379 587Q7401 594 7425 594Q7428 594 7434 594Q7441 594 7447 592Q7453 591 7457 588Q7461 585 7460 580Q7434 449 7435 313Q7436 178 7449 53Q7460 103 7481 166Q7503 230 7531 294Q7560 359 7593 417Q7627 476 7662 516Q7679 535 7696 548Q7714 562 7740 562Q7755 562 7765 556Q7775 550 7781 541Q7788 532 7791 520Q7795 509 7797 498Q7802 469 7807 423Q7812 377 7819 325Q7827 273 7838 220Q7849 168 7866 125Q7883 83 7907 56Q7931 29 7964 29Q7991 29 8016 39Q8042 50 8065 66Q8088 83 8108 104Q8128 126 8144 147ZM8573 524Q8573 513 8565 504Q8557 496 8546 496Q8537 496 8527 501Q8517 507 8504 514Q8492 521 8475 526Q8459 532 8438 532Q8389 532 8350 501Q8312 471 8285 426Q8259 381 8245 330Q8231 279 8231 238Q8231 209 8236 181Q8241 154 8253 131Q8266 109 8288 95Q8310 82 8344 82Q8380 82 8413 95Q8446 109 8475 131Q8476 163 8485 198Q8495 234 8510 268Q8525 303 8544 334Q8564 365 8585 389L8598 381Q8587 347 8582 311Q8577 275 8577 240Q8577 204 8583 172Q8589 140 8604 116Q8619 93 8645 79Q8671 66 8712 66Q8762 66 8804 89Q8846 112 8878 147L8886 143Q8868 108 8839 76Q8810 44 8774 18Q8739 -7 8699 -22Q8659 -37 8620 -37Q8565 -37 8530 -6Q8495 26 8482 74Q8440 32 8388 3Q8337 -25 8280 -25Q8238 -25 8205 -10Q8173 6 8151 32Q8129 58 8117 93Q8106 129 8106 168Q8106 213 8120 260Q8135 308 8160 354Q8186 400 8221 441Q8256 482 8297 513Q8339 544 8385 562Q8431 580 8479 580Q8490 580 8506 577Q8522 575 8537 569Q8552 563 8562 552Q8573 541 8573 524ZM9492 147L9498 143Q9476 106 9446 74Q9417 42 9381 18Q9346 -6 9305 -20Q9264 -33 9220 -33Q9155 -33 9105 -11Q9056 11 9020 48Q8984 86 8960 136Q8936 186 8922 240Q8908 295 8902 352Q8896 409 8896 461Q8896 509 8900 559Q8904 610 8912 663Q8881 662 8851 662Q8822 662 8793 662Q8774 662 8750 663Q8726 664 8705 671Q8684 678 8670 692Q8656 706 8656 733Q8656 748 8661 757Q8667 766 8676 770Q8686 775 8698 776Q8711 778 8724 778Q8739 778 8795 773Q8851 768 8930 762Q8955 880 8994 994Q9034 1108 9084 1202L9098 1202Q9066 1093 9041 982Q9017 871 9005 757Q9078 752 9155 748Q9233 745 9307 745Q9416 745 9484 747Q9552 749 9591 752Q9637 756 9660 760L9664 743Q9604 729 9527 716Q9450 704 9363 694Q9276 685 9183 678Q9090 671 8998 667Q8996 647 8996 626Q8996 606 8996 586Q8996 538 9000 480Q9005 422 9017 363Q9029 305 9049 249Q9070 194 9103 151Q9137 109 9184 83Q9231 57 9295 57Q9354 57 9401 83Q9449 109 9492 147ZM10021 295Q10021 225 9998 165Q9975 105 9933 61Q9891 17 9832 -8Q9774 -33 9703 -33Q9640 -33 9589 -10Q9539 14 9503 54Q9467 94 9448 147Q9429 201 9429 262Q9429 313 9443 359Q9458 405 9484 444Q9510 484 9546 517Q9582 551 9624 578L9636 569Q9594 520 9570 461Q9546 402 9546 336Q9546 288 9560 238Q9575 189 9603 148Q9631 107 9673 81Q9715 55 9769 55Q9803 55 9833 69Q9863 83 9885 107Q9908 131 9921 161Q9935 192 9935 225Q9935 257 9925 287Q9916 318 9899 344Q9882 371 9858 392Q9834 414 9806 428Q9790 436 9775 440Q9761 444 9744 449Q9737 450 9729 452Q9721 455 9714 458Q9707 462 9702 468Q9697 474 9697 483Q9697 501 9710 516Q9723 531 9741 542Q9759 554 9779 560Q9799 567 9814 567Q9865 567 9904 541Q9943 515 9969 475Q9995 435 10008 387Q10021 339 10021 295Z" fill="#ffd348" style=""></path></g></g><g transform="matrix(0.75,0,0,0.75,793.2059,1081.38)"><g transform="matrix(1.024,0,0,-1.024,0,0)"><path d="M78 359L84 295Q84 285 73 279Q63 273 56 273Q42 273 31 295Q21 318 21 337Q21 411 72 462Q124 514 203 540Q203 574 217 604Q232 635 263 635Q276 635 276 598L276 556Q308 560 323 560Q456 560 533 485Q611 411 611 298Q611 220 583 160Q555 100 507 65Q411 -5 277 -5L256 -5Q253 -34 248 -34Q201 -34 185 -21Q178 -14 177 3Q88 28 88 58Q88 68 95 73Q102 79 110 79Q119 79 177 55Q186 317 200 505Q145 486 111 448Q78 410 78 359ZM296 521Q282 521 275 520Q271 345 265 226Q260 71 258 31Q278 28 300 28Q395 28 465 98Q535 169 535 272Q535 375 468 448Q401 521 296 521ZM776 -5Q720 -5 687 37Q654 80 654 134Q654 243 700 299Q746 355 819 355Q853 355 875 336Q897 318 897 286Q897 226 846 185Q796 145 723 143Q727 104 749 75Q772 47 802 47Q832 47 856 61Q880 75 900 101Q942 156 972 226Q980 244 984 252Q989 260 994 260Q1000 260 1000 252Q1000 202 939 102Q873 -5 776 -5ZM723 167Q782 177 809 205Q837 233 837 278Q837 323 808 323Q773 323 749 274Q725 226 723 167ZM1020 -5Q998 -5 979 0Q961 6 957 11Q947 23 947 135Q947 248 972 441Q993 600 1070 600Q1088 600 1096 580Q1104 561 1104 543Q1104 413 1025 252Q1022 169 1022 107Q1022 46 1033 46Q1050 47 1080 88Q1110 130 1139 195Q1169 260 1175 260Q1182 260 1182 252Q1182 224 1153 163Q1074 -5 1020 -5ZM1079 534Q1079 566 1071 566Q1041 566 1027 317Q1079 454 1079 534ZM1159 489Q1159 507 1178 520Q1197 533 1212 533Q1239 533 1239 502Q1239 471 1223 448Q1207 426 1178 426Q1159 426 1159 489ZM1188 -5Q1149 -5 1129 11Q1122 18 1122 61Q1122 104 1128 204Q1135 305 1140 313Q1145 321 1171 343Q1197 365 1211 365Q1226 365 1226 327Q1226 317 1220 288Q1215 259 1208 246Q1195 213 1195 73Q1195 46 1201 46Q1218 47 1248 88Q1278 130 1307 195Q1337 260 1343 260Q1350 260 1350 252Q1350 224 1321 163Q1242 -5 1188 -5ZM1476 243L1484 294Q1484 305 1477 314Q1470 323 1459 323Q1422 323 1395 267Q1368 212 1368 161Q1368 110 1389 78Q1410 47 1440 47Q1471 47 1495 61Q1519 75 1539 101Q1581 156 1611 226Q1619 244 1623 252Q1628 260 1633 260Q1639 260 1639 252Q1639 219 1616 173Q1593 127 1577 102Q1562 78 1538 51Q1488 -5 1413 -5Q1356 -5 1326 35Q1297 76 1297 122Q1297 236 1346 295Q1396 355 1472 355Q1504 355 1522 338Q1541 322 1541 301Q1541 262 1527 243Q1513 224 1493 224Q1476 224 1476 243ZM1620 489Q1620 507 1639 520Q1658 533 1673 533Q1700 533 1700 502Q1700 471 1684 448Q1668 426 1639 426Q1620 426 1620 489ZM1649 -5Q1610 -5 1590 11Q1583 18 1583 61Q1583 104 1589 204Q1596 305 1601 313Q1606 321 1632 343Q1658 365 1672 365Q1687 365 1687 327Q1687 317 1681 288Q1676 259 1669 246Q1656 213 1656 73Q1656 46 1662 46Q1679 47 1709 88Q1739 130 1768 195Q1798 260 1804 260Q1811 260 1811 252Q1811 224 1782 163Q1703 -5 1649 -5ZM2071 217Q2111 230 2126 239Q2142 249 2150 254L2162 261Q2167 264 2170 264Q2178 264 2178 255Q2178 246 2147 223Q2116 201 2070 183Q2063 99 2017 47Q1971 -5 1886 -5Q1824 -5 1791 44Q1758 94 1758 160Q1758 227 1797 286Q1837 345 1899 345Q1927 365 1965 365Q2004 365 2037 324Q2070 283 2071 217ZM2006 166L1970 164Q1924 164 1892 191Q1860 219 1860 252Q1860 285 1871 309Q1828 275 1828 175Q1828 127 1848 83Q1868 40 1911 40Q1954 40 1978 76Q2002 113 2006 166ZM1944 332Q1928 332 1919 317Q1910 303 1910 286Q1910 249 1935 226Q1961 203 1995 203L2007 203Q2005 252 1990 292Q1976 332 1944 332ZM2122 87L2128 199Q2128 306 2138 316Q2148 326 2173 345Q2199 365 2210 365Q2222 365 2225 361Q2228 357 2228 345Q2228 302 2209 258Q2194 166 2194 107Q2194 48 2213 48Q2236 48 2267 88Q2298 128 2329 207Q2338 307 2343 315Q2349 323 2371 344Q2393 365 2407 365Q2422 365 2422 327Q2422 317 2416 288Q2411 259 2404 246Q2393 218 2393 73Q2393 46 2399 46Q2416 47 2446 88Q2476 130 2505 195Q2535 260 2541 260Q2548 260 2548 252Q2548 224 2519 163Q2440 -5 2386 -5Q2347 -5 2327 11Q2320 18 2320 54Q2320 90 2323 134Q2291 66 2259 30Q2227 -5 2187 -5Q2148 -5 2135 16Q2122 37 2122 87ZM2635 306L2637 321Q2637 339 2616 339Q2596 339 2577 312Q2558 286 2558 269Q2558 252 2560 242Q2562 232 2564 225Q2567 219 2573 210Q2579 201 2582 197L2593 183Q2600 173 2603 170Q2655 213 2727 266Q2731 269 2736 269Q2746 269 2746 258Q2746 247 2737 241Q2673 200 2616 152Q2638 120 2638 82Q2638 44 2609 17Q2580 -10 2535 -10Q2490 -10 2490 33Q2490 64 2556 128Q2551 134 2538 147Q2525 161 2518 169Q2512 177 2503 190Q2487 215 2487 244Q2487 303 2525 339Q2563 376 2606 376Q2633 376 2648 361Q2663 347 2663 332Q2663 298 2647 298Q2635 298 2635 306ZM2571 109Q2531 69 2531 44Q2531 20 2556 20Q2571 20 2581 32Q2603 62 2571 109ZM3304 165Q3311 175 3324 200Q3356 257 3362 257Q3369 257 3369 249Q3369 200 3318 125Q3226 -10 3073 -10Q3030 -10 2994 10Q2958 30 2937 61Q2894 124 2894 193Q2894 367 2984 473Q3075 580 3199 580Q3246 580 3276 552Q3306 525 3306 483Q3306 441 3285 405Q3264 369 3234 369Q3205 369 3205 385Q3205 403 3224 426Q3244 449 3244 472Q3244 543 3168 543Q3093 543 3032 442Q2971 341 2971 234Q2971 160 3013 102Q3055 45 3131 45Q3221 45 3304 165ZM3619 217Q3659 230 3674 239Q3690 249 3698 254L3710 261Q3715 264 3718 264Q3726 264 3726 255Q3726 246 3695 223Q3664 201 3618 183Q3611 99 3565 47Q3519 -5 3434 -5Q3372 -5 3339 44Q3306 94 3306 160Q3306 227 3345 286Q3385 345 3447 345Q3475 365 3513 365Q3552 365 3585 324Q3618 283 3619 217ZM3554 166L3518 164Q3472 164 3440 191Q3408 219 3408 252Q3408 285 3419 309Q3376 275 3376 175Q3376 127 3396 83Q3416 40 3459 40Q3502 40 3526 76Q3550 113 3554 166ZM3492 332Q3476 332 3467 317Q3458 303 3458 286Q3458 249 3483 226Q3509 203 3543 203L3555 203Q3553 252 3538 292Q3524 332 3492 332ZM3819 211Q3873 224 3909 244Q3946 264 3948 264Q3954 264 3954 254Q3954 244 3934 229Q3892 198 3829 176Q3855 77 3855 -34Q3855 -127 3834 -212Q3822 -260 3796 -290Q3771 -320 3734 -320Q3702 -320 3690 -292Q3675 -259 3673 -229Q3670 -182 3670 -76Q3670 30 3686 180Q3650 206 3650 243Q3650 281 3666 301Q3682 322 3706 328Q3720 415 3733 478Q3747 541 3775 580Q3803 620 3831 620Q3863 620 3863 549Q3863 437 3780 297Q3801 267 3819 211ZM3749 161Q3740 38 3740 -122Q3740 -281 3757 -281Q3787 -281 3807 -203Q3827 -124 3827 -27Q3827 71 3805 169Q3775 161 3749 161ZM3764 311Q3793 359 3817 424Q3841 490 3841 534Q3841 578 3832 578Q3816 578 3797 505Q3779 432 3764 311ZM3764 271L3758 261L3753 210Q3766 206 3776 206Q3787 206 3794 207Q3781 246 3764 271ZM3702 303Q3687 298 3687 280Q3687 262 3695 249Q3699 285 3702 303ZM4046 211Q4100 224 4136 244Q4173 264 4175 264Q4181 264 4181 254Q4181 244 4161 229Q4119 198 4056 176Q4082 77 4082 -34Q4082 -127 4061 -212Q4049 -260 4023 -290Q3998 -320 3961 -320Q3929 -320 3917 -292Q3902 -259 3900 -229Q3897 -182 3897 -76Q3897 30 3913 180Q3877 206 3877 243Q3877 281 3893 301Q3909 322 3933 328Q3947 415 3960 478Q3974 541 4002 580Q4030 620 4058 620Q4090 620 4090 549Q4090 437 4007 297Q4028 267 4046 211ZM3976 161Q3967 38 3967 -122Q3967 -281 3984 -281Q4014 -281 4034 -203Q4054 -124 4054 -27Q4054 71 4032 169Q4002 161 3976 161ZM3991 311Q4020 359 4044 424Q4068 490 4068 534Q4068 578 4059 578Q4043 578 4024 505Q4006 432 3991 311ZM3991 271L3985 261L3980 210Q3993 206 4003 206Q4014 206 4021 207Q4008 246 3991 271ZM3929 303Q3914 298 3914 280Q3914 262 3922 249Q3926 285 3929 303ZM4246 -5Q4190 -5 4157 37Q4124 80 4124 134Q4124 243 4170 299Q4216 355 4289 355Q4323 355 4345 336Q4367 318 4367 286Q4367 226 4316 185Q4266 145 4193 143Q4197 104 4219 75Q4242 47 4272 47Q4302 47 4326 61Q4350 75 4370 101Q4412 156 4442 226Q4450 244 4454 252Q4459 260 4464 260Q4470 260 4470 252Q4470 202 4409 102Q4343 -5 4246 -5ZM4193 167Q4252 177 4279 205Q4307 233 4307 278Q4307 323 4278 323Q4243 323 4219 274Q4195 226 4193 167Z" fill="#ffd348" style=""></path></g></g></g></svg>