<?xml version="1.0" encoding="UTF-8"?>
<svg xmlns="http://www.w3.org/2000/svg" xmlns:xlink="http://www.w3.org/1999/xlink" width="99px" height="100px" viewBox="0 0 99 100" version="1.1">
<g id="surface1">
<path style=" stroke:none;fill-rule:nonzero;fill:rgb(61.176471%,12.156863%,8.627451%);fill-opacity:1;" d="M 92.707031 41.214844 C 92.867188 41.882812 92.710938 40.941406 92.609375 40.175781 C 92.558594 39.796875 92.515625 39.460938 92.527344 39.402344 C 92.535156 39.371094 92.5625 39.410156 92.613281 39.542969 C 92.65625 39.679688 92.722656 39.910156 92.8125 40.269531 C 92.777344 40.011719 92.734375 39.722656 92.664062 39.414062 C 92.585938 39.105469 92.496094 38.769531 92.398438 38.417969 C 92.296875 38.066406 92.199219 37.691406 92.074219 37.316406 C 91.9375 36.941406 91.800781 36.558594 91.660156 36.167969 C 91.398438 35.386719 91.039062 34.621094 90.742188 33.882812 C 90.59375 33.511719 90.421875 33.164062 90.265625 32.828125 C 90.113281 32.492188 89.96875 32.175781 89.839844 31.878906 C 89.910156 31.675781 90.242188 32.074219 90.339844 31.976562 C 90.390625 31.929688 90.378906 31.757812 90.25 31.324219 C 90.097656 30.898438 89.824219 30.210938 89.316406 29.144531 C 88.9375 28.449219 88.640625 27.921875 88.402344 27.519531 C 88.15625 27.128906 87.960938 26.867188 87.816406 26.6875 C 87.527344 26.324219 87.417969 26.304688 87.3125 26.304688 C 87.210938 26.304688 87.113281 26.324219 86.851562 26.050781 C 86.722656 25.914062 86.535156 25.71875 86.285156 25.40625 C 86.03125 25.101562 85.730469 24.671875 85.304688 24.121094 C 85.679688 24.632812 86.027344 25.167969 86.386719 25.691406 C 86.476562 25.820312 86.570312 25.949219 86.652344 26.082031 L 87.402344 27.300781 C 87.089844 26.933594 86.757812 26.484375 86.375 25.992188 C 85.976562 25.511719 85.5625 24.960938 85.109375 24.378906 C 84.871094 24.09375 84.628906 23.796875 84.378906 23.496094 C 84.128906 23.191406 83.882812 22.871094 83.601562 22.566406 C 83.050781 21.949219 82.5 21.285156 81.875 20.65625 C 80.679688 19.355469 79.300781 18.113281 77.917969 16.933594 C 77.5625 16.652344 77.207031 16.371094 76.855469 16.097656 C 76.675781 15.957031 76.5 15.820312 76.328125 15.683594 C 76.144531 15.558594 75.964844 15.429688 75.785156 15.304688 C 75.429688 15.050781 75.074219 14.804688 74.726562 14.5625 C 74.375 14.328125 74.015625 14.113281 73.671875 13.902344 C 71.710938 12.457031 69.769531 11.121094 67.511719 9.933594 C 65.25 8.769531 62.664062 7.746094 59.46875 7.140625 C 59.824219 7.175781 61.410156 7.433594 61.132812 7.210938 C 60.847656 7.109375 60.503906 7.007812 60.128906 6.910156 C 59.753906 6.8125 59.347656 6.707031 58.933594 6.648438 C 58.519531 6.578125 58.105469 6.515625 57.714844 6.460938 C 57.519531 6.433594 57.332031 6.40625 57.152344 6.382812 C 56.976562 6.367188 56.804688 6.351562 56.648438 6.339844 C 54.933594 6.289062 55.164062 6.4375 55.648438 6.605469 C 56.132812 6.773438 56.871094 6.964844 56.226562 7.011719 C 55.523438 6.96875 54.835938 6.910156 54.132812 6.914062 C 53.78125 6.910156 53.425781 6.902344 53.0625 6.894531 C 52.882812 6.894531 52.703125 6.882812 52.519531 6.886719 C 52.335938 6.886719 52.152344 6.890625 51.964844 6.894531 C 51.214844 6.914062 50.429688 6.882812 49.589844 6.921875 C 49.167969 6.933594 48.734375 6.941406 48.28125 6.941406 C 47.828125 6.945312 47.359375 6.980469 46.867188 6.992188 C 46.460938 6.972656 46.046875 6.9375 45.640625 6.9375 L 44.40625 6.933594 C 43.578125 6.910156 42.757812 6.976562 41.925781 7.007812 C 41.734375 7.097656 41.53125 7.171875 41.320312 7.257812 C 41.113281 7.347656 40.898438 7.429688 40.675781 7.511719 C 40.230469 7.671875 39.75 7.8125 39.242188 7.960938 C 38.742188 8.125 38.210938 8.285156 37.648438 8.441406 C 37.511719 8.480469 37.367188 8.519531 37.222656 8.558594 C 37.082031 8.605469 36.941406 8.652344 36.792969 8.699219 C 36.503906 8.789062 36.207031 8.882812 35.902344 8.976562 C 33.484375 9.746094 30.679688 10.820312 27.875 12.625 C 27.203125 12.761719 25.480469 13.902344 23.851562 15.148438 C 23.0625 15.804688 22.25 16.429688 21.613281 16.996094 C 21.289062 17.269531 20.992188 17.511719 20.734375 17.699219 C 20.480469 17.886719 20.28125 18.042969 20.125 18.113281 C 19.558594 18.65625 19.199219 18.902344 18.945312 18.992188 C 18.691406 19.082031 18.550781 19.019531 18.40625 18.933594 C 18.125 18.761719 17.867188 18.5 16.84375 19.34375 C 16.417969 19.730469 16.152344 20.003906 15.980469 20.167969 C 15.808594 20.328125 15.730469 20.382812 15.722656 20.367188 C 15.703125 20.335938 15.949219 20.019531 16.191406 19.703125 C 16.4375 19.390625 16.707031 19.089844 16.6875 19.058594 C 16.675781 19.042969 16.597656 19.09375 16.417969 19.25 C 16.230469 19.402344 15.957031 19.671875 15.554688 20.089844 C 15.753906 19.84375 15.933594 19.628906 16.101562 19.4375 C 16.273438 19.253906 16.433594 19.09375 16.578125 18.957031 C 16.871094 18.679688 17.109375 18.484375 17.3125 18.339844 C 17.515625 18.195312 17.683594 18.101562 17.84375 18.03125 C 18.003906 17.964844 18.15625 17.917969 18.316406 17.863281 C 18.96875 17.660156 19.679688 17.234375 22.203125 15.101562 L 21.851562 15.183594 C 22.101562 14.949219 22.382812 14.703125 22.6875 14.449219 C 22.839844 14.324219 22.996094 14.195312 23.160156 14.070312 C 23.328125 13.949219 23.503906 13.828125 23.675781 13.703125 C 24.03125 13.460938 24.394531 13.210938 24.757812 12.960938 C 25.128906 12.710938 25.515625 12.492188 25.890625 12.261719 C 26.265625 12.035156 26.628906 11.796875 26.992188 11.59375 C 27.355469 11.390625 27.699219 11.1875 28.023438 10.996094 C 28.65625 10.59375 29.214844 10.269531 29.585938 9.957031 C 29.988281 9.761719 30.335938 9.585938 30.648438 9.445312 C 30.964844 9.3125 31.234375 9.203125 31.460938 9.109375 C 31.921875 8.929688 32.21875 8.824219 32.40625 8.777344 C 32.777344 8.683594 32.691406 8.8125 32.507812 8.996094 C 32.136719 9.363281 31.382812 9.929688 33.023438 9.386719 C 33.460938 9.128906 34.238281 8.722656 35.191406 8.304688 C 35.671875 8.109375 36.191406 7.898438 36.71875 7.679688 C 37.253906 7.46875 37.8125 7.292969 38.355469 7.097656 C 38.625 7.003906 38.894531 6.902344 39.15625 6.820312 C 39.421875 6.738281 39.679688 6.660156 39.929688 6.585938 C 40.429688 6.429688 40.886719 6.277344 41.285156 6.148438 C 42.082031 5.914062 42.617188 5.710938 42.667969 5.570312 L 41.292969 5.816406 C 40.839844 5.90625 40.386719 6.019531 39.933594 6.121094 C 39.023438 6.3125 38.132812 6.582031 37.238281 6.835938 C 38.105469 6.574219 37.402344 6.660156 37.746094 6.515625 C 38.707031 6.355469 40.015625 6.011719 41.417969 5.621094 C 42.125 5.453125 42.851562 5.242188 43.570312 5.066406 C 44.296875 4.90625 45.007812 4.746094 45.667969 4.601562 C 46.996094 4.371094 48.128906 4.175781 48.753906 4.214844 C 49.378906 4.230469 49.476562 4.382812 48.773438 4.78125 C 48.589844 4.808594 48.328125 4.828125 48.03125 4.847656 C 47.734375 4.878906 47.402344 4.914062 47.074219 4.945312 C 46.421875 5.019531 45.785156 5.085938 45.507812 5.207031 C 45.667969 5.355469 46.691406 5.332031 48.027344 5.234375 C 48.699219 5.214844 49.449219 5.191406 50.210938 5.167969 C 50.972656 5.167969 51.742188 5.191406 52.457031 5.214844 C 53.195312 5.15625 53.960938 5.125 54.773438 5.074219 C 55.585938 5.046875 56.4375 5.070312 57.34375 5.09375 C 59.144531 5.230469 61.175781 5.484375 63.390625 6.269531 C 64.15625 6.53125 64.285156 6.667969 64.417969 6.792969 C 64.550781 6.917969 64.679688 7.042969 65.425781 7.34375 C 65.707031 7.429688 65.984375 7.5 66.246094 7.59375 C 66.507812 7.6875 66.761719 7.777344 67.003906 7.863281 C 67.492188 8.046875 67.953125 8.199219 68.375 8.378906 C 68.796875 8.5625 69.1875 8.738281 69.558594 8.898438 C 69.929688 9.066406 70.277344 9.222656 70.597656 9.398438 C 71.234375 9.742188 71.8125 10.042969 72.335938 10.363281 C 72.855469 10.691406 73.339844 11.007812 73.828125 11.328125 C 74.3125 11.648438 74.773438 12.007812 75.285156 12.371094 C 75.804688 12.726562 76.324219 13.148438 76.921875 13.601562 C 78.117188 14.507812 79.542969 15.648438 81.386719 17.289062 C 83.492188 19.542969 85.726562 22.125 87.636719 24.949219 C 89.558594 27.753906 91.101562 30.824219 92.035156 33.726562 C 92.023438 33.480469 92.117188 33.589844 92.273438 33.910156 C 92.351562 34.070312 92.445312 34.28125 92.546875 34.527344 C 92.597656 34.652344 92.652344 34.785156 92.710938 34.925781 C 92.761719 35.066406 92.808594 35.214844 92.859375 35.367188 C 93.058594 35.976562 93.285156 36.648438 93.453125 37.253906 C 93.605469 37.863281 93.738281 38.390625 93.8125 38.691406 C 93.882812 39.121094 94.007812 40.175781 94.230469 41.402344 C 94.3125 42.019531 94.402344 42.683594 94.507812 43.339844 C 94.609375 43.996094 94.675781 44.652344 94.78125 45.246094 C 94.59375 43.839844 94.558594 44.714844 94.355469 43.75 C 94.460938 44.414062 94.546875 45.015625 94.613281 45.558594 C 94.65625 45.828125 94.671875 46.082031 94.683594 46.328125 C 94.699219 46.570312 94.710938 46.796875 94.71875 47.011719 C 94.738281 47.4375 94.746094 47.8125 94.746094 48.140625 C 94.726562 48.46875 94.703125 48.75 94.671875 48.988281 C 94.554688 49.949219 94.367188 50.269531 94.222656 50.417969 C 94.140625 49.386719 94.074219 48.59375 93.957031 47.90625 C 93.828125 47.226562 93.71875 46.644531 93.605469 46.042969 C 93.472656 45.445312 93.335938 44.832031 93.214844 44.066406 C 93.15625 43.679688 93.058594 43.265625 92.980469 42.796875 C 92.894531 42.328125 92.835938 41.800781 92.707031 41.214844 Z M 92.707031 41.214844 "/>
<path style=" stroke:none;fill-rule:nonzero;fill:rgb(61.176471%,12.156863%,8.627451%);fill-opacity:1;" d="M 10.488281 31.835938 C 10.425781 31.214844 9.394531 33.25 8.707031 34.9375 C 8.359375 35.777344 8.09375 36.527344 7.933594 36.753906 C 7.78125 36.984375 7.761719 36.707031 7.984375 35.496094 C 7.839844 35.886719 7.703125 36.25 7.578125 36.59375 C 7.515625 36.761719 7.457031 36.929688 7.398438 37.089844 C 7.347656 37.253906 7.300781 37.410156 7.257812 37.566406 C 7.078125 38.179688 6.933594 38.722656 6.8125 39.21875 C 6.710938 39.726562 6.632812 40.1875 6.566406 40.640625 C 6.535156 40.867188 6.503906 41.089844 6.46875 41.3125 C 6.441406 41.539062 6.429688 41.765625 6.410156 41.996094 C 6.464844 41.765625 6.511719 41.566406 6.558594 41.398438 C 6.609375 41.230469 6.652344 41.09375 6.6875 40.980469 C 6.757812 40.75 6.800781 40.621094 6.828125 40.566406 C 6.878906 40.449219 6.851562 40.621094 6.816406 40.84375 C 6.746094 41.289062 6.636719 41.941406 7.003906 40.988281 C 5.875 46.921875 5.933594 52.90625 7.023438 58.558594 C 8.117188 64.214844 10.277344 69.542969 13.28125 74.234375 C 13.410156 74.460938 13.539062 74.6875 13.664062 74.910156 C 13.792969 75.132812 13.941406 75.347656 14.078125 75.5625 C 14.359375 75.992188 14.636719 76.421875 14.921875 76.839844 C 15.53125 77.652344 16.113281 78.472656 16.777344 79.21875 C 18.054688 80.75 19.476562 82.105469 20.957031 83.363281 L 22.089844 84.277344 C 22.472656 84.574219 22.871094 84.847656 23.261719 85.132812 L 23.855469 85.554688 C 24.050781 85.695312 24.257812 85.820312 24.460938 85.953125 C 24.871094 86.210938 25.277344 86.472656 25.6875 86.730469 C 26.105469 86.976562 26.53125 87.210938 26.953125 87.449219 L 27.585938 87.808594 L 28.242188 88.136719 C 28.675781 88.351562 29.113281 88.566406 29.554688 88.785156 C 30.003906 88.980469 30.453125 89.179688 30.90625 89.375 C 31.429688 89.683594 31.867188 89.890625 32.195312 90.074219 C 32.527344 90.257812 32.761719 90.402344 32.914062 90.511719 C 33.222656 90.734375 33.214844 90.828125 33.03125 90.84375 C 32.664062 90.882812 31.59375 90.625 31.003906 90.542969 C 32.890625 91.425781 34.816406 92.214844 36.800781 92.847656 C 34.757812 92.34375 32.75 91.671875 30.769531 90.898438 C 30.621094 90.972656 31.199219 91.300781 31.988281 91.722656 C 32.183594 91.824219 32.394531 91.9375 32.609375 92.046875 C 32.824219 92.15625 33.050781 92.257812 33.273438 92.363281 C 33.71875 92.570312 34.148438 92.777344 34.503906 92.964844 C 35.070312 93.15625 35.648438 93.3125 36.21875 93.488281 C 35.039062 93.722656 31.960938 92.648438 28.734375 90.808594 C 28.324219 90.59375 27.933594 90.328125 27.523438 90.082031 C 27.125 89.828125 26.703125 89.59375 26.3125 89.3125 C 25.519531 88.765625 24.710938 88.238281 23.964844 87.65625 C 23.589844 87.371094 23.207031 87.101562 22.84375 86.816406 C 22.484375 86.535156 22.132812 86.253906 21.789062 85.980469 C 21.613281 85.847656 21.441406 85.714844 21.273438 85.582031 C 21.109375 85.445312 20.949219 85.3125 20.789062 85.179688 C 20.46875 84.917969 20.160156 84.667969 19.855469 84.4375 C 20.558594 85.023438 21.066406 85.464844 21.453125 85.746094 C 21.835938 86.027344 22.070312 86.1875 22.195312 86.257812 C 22.449219 86.398438 22.261719 86.1875 21.980469 85.894531 C 21.835938 85.746094 21.671875 85.578125 21.519531 85.421875 C 21.371094 85.265625 21.25 85.109375 21.175781 85.011719 C 21.035156 84.800781 21.109375 84.796875 21.734375 85.242188 C 21.160156 84.75 20.601562 84.238281 20.039062 83.738281 C 20.421875 84.0625 20.910156 84.457031 21.492188 84.914062 C 21.777344 85.148438 22.113281 85.363281 22.457031 85.613281 C 22.804688 85.855469 23.167969 86.121094 23.5625 86.386719 C 25.144531 87.433594 27.109375 88.617188 29.410156 89.804688 C 29.007812 89.605469 28.625 89.363281 28.234375 89.140625 C 27.847656 88.914062 27.457031 88.695312 27.074219 88.460938 L 25.941406 87.730469 L 25.375 87.367188 L 24.824219 86.980469 L 23.730469 86.207031 C 23.367188 85.945312 23.023438 85.660156 22.667969 85.390625 C 21.953125 84.859375 21.285156 84.269531 20.609375 83.695312 C 20.261719 83.417969 19.945312 83.105469 19.621094 82.804688 C 19.296875 82.503906 18.972656 82.203125 18.652344 81.902344 C 18.34375 81.589844 18.035156 81.277344 17.726562 80.960938 L 17.261719 80.492188 C 17.109375 80.335938 16.96875 80.167969 16.820312 80.007812 C 16.527344 79.683594 16.234375 79.359375 15.945312 79.035156 C 15.648438 78.714844 15.386719 78.367188 15.105469 78.035156 C 14.832031 77.699219 14.546875 77.371094 14.289062 77.027344 C 14.027344 76.683594 13.769531 76.335938 13.511719 75.992188 L 13.125 75.480469 L 12.761719 74.949219 C 12.523438 74.597656 12.28125 74.246094 12.042969 73.894531 C 11.796875 73.546875 11.59375 73.175781 11.367188 72.820312 C 11.144531 72.457031 10.917969 72.101562 10.707031 71.742188 C 10.503906 71.375 10.300781 71.007812 10.097656 70.644531 C 9.898438 70.277344 9.683594 69.921875 9.507812 69.546875 C 9.324219 69.175781 9.140625 68.804688 8.960938 68.4375 C 8.871094 68.253906 8.773438 68.070312 8.691406 67.886719 L 8.445312 67.324219 C 7.109375 64.351562 6.128906 61.339844 5.46875 58.402344 C 5.601562 58.738281 5.859375 59.640625 5.75 58.558594 C 5.664062 58.027344 5.546875 57.53125 5.472656 57.054688 C 5.394531 56.574219 5.316406 56.125 5.230469 55.695312 C 5.1875 55.480469 5.144531 55.269531 5.101562 55.066406 C 5.066406 54.863281 5.035156 54.664062 5 54.46875 C 4.933594 54.082031 4.859375 53.714844 4.789062 53.367188 C 4.632812 52.667969 4.546875 52.039062 4.441406 51.464844 C 4.339844 50.890625 4.246094 50.371094 4.21875 49.894531 L 4.253906 50.371094 C 4.269531 50.53125 4.292969 50.691406 4.3125 50.847656 L 4.429688 51.800781 C 4.480469 51.125 4.472656 50.34375 4.507812 49.503906 C 4.519531 49.082031 4.523438 48.644531 4.523438 48.199219 C 4.53125 47.753906 4.5625 47.296875 4.574219 46.835938 C 4.621094 44.988281 4.816406 43.074219 5.089844 41.460938 C 5.332031 40.601562 5.613281 39.832031 5.859375 39.058594 C 6.136719 38.292969 6.417969 37.527344 6.722656 36.691406 C 6.890625 36.28125 7.054688 35.847656 7.226562 35.390625 C 7.316406 35.160156 7.394531 34.921875 7.492188 34.679688 C 7.59375 34.4375 7.695312 34.191406 7.800781 33.933594 C 8.199219 32.894531 8.695312 31.730469 9.292969 30.363281 L 9.425781 30.648438 L 10 29.597656 C 10.199219 29.246094 10.375 28.890625 10.59375 28.554688 L 11.21875 27.53125 L 11.535156 27.019531 L 11.871094 26.523438 C 11.5625 27.03125 11.511719 27.207031 11.546875 27.222656 C 11.582031 27.238281 11.699219 27.09375 11.792969 27.003906 C 11.671875 27.335938 11.515625 27.523438 11.066406 28.234375 C 11.152344 28.457031 11.617188 28.097656 12.238281 27.433594 C 12.90625 26.789062 13.71875 25.828125 14.597656 24.867188 C 14.347656 25.191406 14.101562 25.515625 13.871094 25.816406 C 13.65625 26.125 13.46875 26.417969 13.320312 26.667969 C 13.925781 25.800781 15.417969 23.96875 16.550781 22.785156 C 17.71875 21.632812 18.429688 21.070312 17.394531 22.542969 C 17.144531 22.828125 16.910156 23.089844 16.703125 23.351562 C 16.492188 23.609375 16.292969 23.847656 16.101562 24.070312 C 15.914062 24.292969 15.722656 24.496094 15.558594 24.695312 C 15.394531 24.898438 15.238281 25.085938 15.089844 25.261719 C 14.789062 25.617188 14.503906 25.929688 14.242188 26.21875 C 13.988281 26.515625 13.753906 26.796875 13.515625 27.070312 C 13.285156 27.347656 13.039062 27.613281 12.808594 27.914062 C 12.582031 28.21875 12.347656 28.539062 12.101562 28.90625 C 11.976562 29.085938 11.847656 29.28125 11.714844 29.484375 C 11.585938 29.695312 11.460938 29.921875 11.328125 30.164062 C 11.195312 30.402344 11.058594 30.660156 10.914062 30.9375 C 10.84375 31.078125 10.773438 31.21875 10.695312 31.367188 C 10.625 31.515625 10.558594 31.675781 10.488281 31.835938 Z M 10.488281 31.835938 "/>
<path style=" stroke:none;fill-rule:nonzero;fill:rgb(61.176471%,12.156863%,8.627451%);fill-opacity:1;" d="M 27.355469 11.082031 C 27.097656 11.214844 26.875 11.328125 26.6875 11.421875 C 26.5 11.523438 26.347656 11.605469 26.222656 11.675781 C 25.972656 11.808594 25.835938 11.871094 25.777344 11.886719 C 25.664062 11.914062 25.878906 11.734375 26.191406 11.492188 C 26.496094 11.246094 26.921875 10.96875 27.199219 10.757812 C 27.472656 10.546875 27.605469 10.414062 27.347656 10.484375 L 28.253906 9.957031 C 28.5625 9.789062 28.875 9.632812 29.183594 9.472656 L 30.117188 8.992188 C 30.425781 8.828125 30.75 8.695312 31.0625 8.546875 C 31.121094 8.59375 30.925781 8.742188 30.597656 8.9375 C 30.269531 9.136719 29.820312 9.410156 29.359375 9.691406 C 28.417969 10.222656 27.476562 10.878906 27.355469 11.082031 Z M 27.355469 11.082031 "/>
<path style=" stroke:none;fill-rule:nonzero;fill:rgb(61.176471%,12.156863%,8.627451%);fill-opacity:1;" d="M 57.433594 93.296875 C 57.636719 93.371094 58.445312 93.273438 59.394531 93.089844 C 60.339844 92.878906 61.433594 92.632812 62.21875 92.421875 C 62.59375 92.285156 62.9375 92.164062 63.257812 92.054688 C 63.570312 91.933594 63.855469 91.800781 64.128906 91.6875 C 64.402344 91.570312 64.664062 91.457031 64.925781 91.34375 C 65.054688 91.289062 65.183594 91.234375 65.316406 91.179688 C 65.441406 91.117188 65.574219 91.058594 65.703125 90.996094 C 66.230469 90.742188 66.8125 90.507812 67.511719 90.191406 C 68.203125 89.855469 69.050781 89.527344 70.078125 89.011719 C 68.636719 90.128906 69.558594 89.886719 71.273438 89.207031 C 71.699219 89.03125 72.15625 88.800781 72.644531 88.570312 C 72.890625 88.453125 73.136719 88.335938 73.390625 88.214844 C 73.632812 88.082031 73.882812 87.949219 74.128906 87.816406 C 74.375 87.683594 74.621094 87.550781 74.863281 87.421875 C 74.984375 87.355469 75.105469 87.292969 75.222656 87.230469 C 75.339844 87.164062 75.453125 87.097656 75.566406 87.03125 C 76.015625 86.765625 76.4375 86.527344 76.8125 86.324219 C 76.34375 86.675781 75.800781 87.136719 75.160156 87.605469 C 74.839844 87.839844 74.5 88.082031 74.148438 88.332031 C 73.96875 88.457031 73.789062 88.585938 73.605469 88.714844 C 73.414062 88.832031 73.222656 88.953125 73.027344 89.074219 C 72.636719 89.320312 72.234375 89.566406 71.824219 89.808594 C 71.40625 90.035156 70.972656 90.253906 70.542969 90.472656 L 69.890625 90.789062 C 69.671875 90.886719 69.445312 90.972656 69.222656 91.0625 C 68.777344 91.238281 68.332031 91.40625 67.890625 91.558594 C 68.058594 91.382812 67.363281 91.585938 66.425781 91.882812 C 66.195312 91.957031 65.945312 92.039062 65.691406 92.125 C 65.4375 92.195312 65.171875 92.273438 64.917969 92.347656 C 64.402344 92.496094 63.910156 92.640625 63.511719 92.757812 C 62.339844 93.261719 62.894531 93.367188 62.503906 93.710938 C 62.304688 93.878906 61.875 94.144531 60.835938 94.457031 C 60.316406 94.613281 59.65625 94.839844 58.785156 95.007812 C 58.351562 95.097656 57.871094 95.199219 57.335938 95.308594 C 56.796875 95.394531 56.199219 95.480469 55.546875 95.570312 C 55.0625 95.617188 54.402344 95.644531 53.6875 95.695312 C 53.328125 95.71875 52.960938 95.75 52.589844 95.765625 C 52.222656 95.773438 51.855469 95.78125 51.503906 95.785156 C 51.152344 95.789062 50.820312 95.792969 50.523438 95.789062 C 50.222656 95.789062 49.957031 95.757812 49.742188 95.734375 C 49.304688 95.6875 49.066406 95.621094 49.144531 95.53125 C 48.8125 95.488281 48.488281 95.484375 48.160156 95.496094 C 47.832031 95.503906 47.503906 95.511719 47.171875 95.515625 C 46.835938 95.523438 46.5 95.523438 46.152344 95.496094 C 45.808594 95.472656 45.457031 95.402344 45.101562 95.277344 L 44.382812 95.03125 C 46.546875 95.261719 48.722656 95.273438 50.882812 95.1875 C 51.121094 95.230469 51.617188 95.320312 52.207031 95.285156 C 51.898438 95.226562 52.183594 95.160156 52.714844 95.070312 C 53.246094 94.957031 54.019531 94.824219 54.699219 94.691406 C 56.050781 94.378906 57 94.054688 54.925781 94.097656 C 52.035156 94.398438 49.117188 94.414062 46.222656 94.152344 C 45.699219 94.082031 45.496094 93.988281 45.53125 93.953125 C 45.566406 93.914062 45.84375 93.910156 46.28125 93.894531 C 46.71875 93.886719 47.316406 93.890625 48 93.910156 C 48.683594 93.90625 49.449219 93.894531 50.226562 93.902344 C 50.792969 93.929688 51.285156 93.9375 51.71875 93.949219 C 52.148438 93.957031 52.527344 93.984375 52.855469 93.964844 C 53.515625 93.941406 54.003906 93.914062 54.441406 93.875 C 54.882812 93.847656 55.265625 93.761719 55.722656 93.671875 C 55.953125 93.625 56.199219 93.574219 56.480469 93.519531 C 56.761719 93.460938 57.074219 93.394531 57.433594 93.296875 Z M 57.433594 93.296875 "/>
<path style=" stroke:none;fill-rule:nonzero;fill:rgb(61.176471%,12.156863%,8.627451%);fill-opacity:1;" d="M 35.945312 92.34375 L 35.523438 92.09375 C 36.136719 92.285156 36.742188 92.5 37.359375 92.675781 L 39.21875 93.175781 L 41.097656 93.585938 C 41.410156 93.660156 41.726562 93.703125 42.042969 93.757812 L 42.992188 93.914062 C 40.605469 93.601562 38.25 93.058594 35.945312 92.34375 Z M 35.945312 92.34375 "/>
<path style=" stroke:none;fill-rule:nonzero;fill:rgb(61.176471%,12.156863%,8.627451%);fill-opacity:1;" d="M 81.78125 80.3125 C 81.546875 80.597656 81.3125 80.867188 81.070312 81.121094 C 80.820312 81.363281 80.570312 81.601562 80.316406 81.835938 C 80.070312 82.074219 79.820312 82.308594 79.566406 82.550781 C 79.304688 82.78125 79.042969 83.027344 78.78125 83.289062 L 78.339844 83.046875 L 79.230469 82.402344 C 79.527344 82.1875 79.804688 81.949219 80.09375 81.722656 L 80.953125 81.035156 C 81.234375 80.800781 81.503906 80.554688 81.78125 80.3125 Z M 81.78125 80.3125 "/>
<path style=" stroke:none;fill-rule:nonzero;fill:rgb(61.176471%,12.156863%,8.627451%);fill-opacity:1;" d="M 11.59375 75.382812 C 11.222656 74.996094 10.746094 74.425781 10.304688 73.71875 C 10.078125 73.367188 9.839844 72.996094 9.601562 72.609375 C 9.371094 72.222656 9.160156 71.8125 8.9375 71.40625 C 8.722656 71 8.484375 70.605469 8.300781 70.207031 C 8.105469 69.808594 7.914062 69.429688 7.738281 69.074219 C 7.363281 68.371094 7.09375 67.753906 6.839844 67.375 C 7.375 68.75 7.277344 68.238281 7.484375 68.542969 C 7.324219 68.097656 7.175781 67.648438 7.023438 67.199219 C 6.875 66.75 6.710938 66.308594 6.59375 65.851562 C 8.035156 69.035156 9.429688 72.167969 11.59375 75.382812 Z M 11.59375 75.382812 "/>
<path style=" stroke:none;fill-rule:nonzero;fill:rgb(61.176471%,12.156863%,8.627451%);fill-opacity:1;" d="M 90.089844 68.058594 C 90.214844 67.769531 90.335938 67.5 90.441406 67.234375 C 90.539062 66.96875 90.628906 66.710938 90.714844 66.46875 C 90.882812 65.976562 91.046875 65.535156 91.167969 65.109375 C 91.28125 64.679688 91.386719 64.277344 91.492188 63.886719 C 91.542969 63.691406 91.59375 63.5 91.644531 63.308594 C 91.691406 63.117188 91.726562 62.921875 91.769531 62.726562 C 91.933594 61.945312 92.140625 61.152344 92.328125 60.1875 C 92.558594 59.226562 92.78125 58.101562 93.074219 56.671875 C 93.367188 55.429688 93.105469 58.261719 93.453125 56.449219 C 93.816406 54.632812 93.617188 54.175781 93.597656 53.277344 L 93.390625 53.96875 C 93.492188 53.625 93.617188 53.085938 93.722656 52.507812 C 93.8125 51.929688 93.902344 51.308594 94 50.804688 C 94.183594 49.78125 94.359375 49.210938 94.617188 50.417969 C 94.597656 50.886719 94.582031 51.335938 94.570312 51.773438 C 94.554688 52.210938 94.566406 52.632812 94.535156 53.042969 C 94.515625 53.453125 94.496094 53.847656 94.476562 54.234375 C 94.464844 54.621094 94.457031 55 94.421875 55.363281 C 94.363281 56.09375 94.34375 56.792969 94.28125 57.460938 C 94.214844 58.132812 94.148438 58.78125 94.089844 59.410156 C 93.996094 60.039062 93.902344 60.65625 93.800781 61.273438 C 93.699219 61.886719 93.535156 62.488281 93.386719 63.105469 C 93.242188 63.722656 93.019531 64.332031 92.789062 64.964844 C 92.671875 65.277344 92.558594 65.597656 92.414062 65.917969 C 92.269531 66.234375 92.113281 66.558594 91.949219 66.886719 C 91.667969 67.140625 91.390625 67.390625 91.109375 67.632812 L 90.449219 69.242188 C 90.34375 69.511719 90.21875 69.773438 90.09375 70.039062 L 89.726562 70.824219 C 89.648438 70.917969 89.59375 70.929688 89.496094 71.050781 C 89.398438 71.167969 89.269531 71.398438 88.992188 71.90625 C 88.480469 73.003906 88.75 72.648438 89.171875 72.050781 C 89.273438 71.902344 89.390625 71.738281 89.5 71.578125 C 89.605469 71.414062 89.707031 71.25 89.800781 71.113281 C 89.988281 70.839844 90.136719 70.660156 90.167969 70.730469 C 89.933594 71.246094 89.703125 71.765625 89.433594 72.261719 C 89.167969 72.761719 88.917969 73.273438 88.640625 73.769531 L 87.785156 75.242188 C 87.5 75.734375 87.171875 76.199219 86.867188 76.679688 C 86.359375 77.34375 87.152344 76.035156 86.96875 76.207031 C 86.707031 76.515625 86.472656 76.820312 86.253906 77.117188 C 86.027344 77.402344 85.8125 77.683594 85.609375 77.964844 C 85.410156 78.242188 85.21875 78.515625 85.035156 78.785156 C 84.847656 79.050781 84.65625 79.300781 84.46875 79.554688 C 83.734375 80.578125 82.945312 81.507812 81.804688 82.332031 C 82.050781 82.078125 82.273438 81.804688 82.5 81.535156 L 83.175781 80.730469 C 83.40625 80.464844 83.617188 80.1875 83.828125 79.90625 L 84.464844 79.070312 C 82.820312 80.992188 81.171875 82.484375 79.601562 83.746094 C 78.039062 85.027344 76.496094 86.011719 75.007812 86.945312 C 77.101562 85.5625 78.789062 84.097656 80.25 82.640625 C 80.601562 82.265625 80.953125 81.898438 81.292969 81.535156 C 81.632812 81.171875 81.941406 80.785156 82.253906 80.417969 C 82.410156 80.234375 82.566406 80.050781 82.71875 79.867188 C 82.871094 79.683594 83.011719 79.488281 83.15625 79.300781 C 83.441406 78.925781 83.726562 78.550781 84.007812 78.179688 C 84.277344 77.796875 84.542969 77.414062 84.808594 77.03125 L 85.207031 76.460938 C 85.335938 76.265625 85.457031 76.066406 85.582031 75.871094 C 85.835938 75.480469 86.089844 75.085938 86.34375 74.691406 C 86.589844 74.285156 86.832031 73.878906 87.082031 73.464844 C 87.207031 73.261719 87.335938 73.054688 87.460938 72.847656 C 87.582031 72.636719 87.703125 72.421875 87.824219 72.207031 C 88.070312 71.777344 88.320312 71.339844 88.574219 70.898438 C 88.816406 70.445312 89.066406 69.984375 89.328125 69.515625 C 89.390625 69.398438 89.457031 69.28125 89.523438 69.164062 C 89.585938 69.042969 89.644531 68.921875 89.707031 68.796875 C 89.832031 68.554688 89.960938 68.308594 90.089844 68.058594 Z M 90.089844 68.058594 "/>
<path style=" stroke:none;fill-rule:nonzero;fill:rgb(61.176471%,12.156863%,8.627451%);fill-opacity:1;" d="M 91.238281 50 C 91.238281 72.972656 72.550781 91.59375 49.5 91.59375 C 26.449219 91.59375 7.761719 72.972656 7.761719 50 C 7.761719 27.027344 26.449219 8.40625 49.5 8.40625 C 72.550781 8.40625 91.238281 27.027344 91.238281 50 Z M 91.238281 50 "/>
<path style=" stroke:none;fill-rule:nonzero;fill:rgb(100%,82.745098%,28.235294%);fill-opacity:1;" d="M 22.808594 38.390625 C 22.808594 38.71875 22.75 39.027344 22.625 39.3125 C 22.5 39.601562 22.332031 39.867188 22.125 40.109375 C 21.917969 40.34375 21.675781 40.558594 21.402344 40.75 C 21.128906 40.941406 20.839844 41.105469 20.535156 41.238281 C 20.234375 41.363281 19.925781 41.464844 19.609375 41.539062 C 19.296875 41.605469 19 41.640625 18.714844 41.640625 L 18.675781 41.640625 L 18.675781 41.503906 C 19.085938 41.453125 19.484375 41.328125 19.871094 41.128906 C 20.257812 40.921875 20.601562 40.664062 20.902344 40.355469 C 21.203125 40.042969 21.441406 39.691406 21.621094 39.300781 C 21.804688 38.90625 21.898438 38.496094 21.898438 38.066406 C 21.898438 37.835938 21.863281 37.625 21.800781 37.4375 C 21.742188 37.246094 21.648438 37.085938 21.527344 36.953125 C 21.40625 36.816406 21.253906 36.710938 21.074219 36.636719 C 20.890625 36.5625 20.675781 36.527344 20.433594 36.527344 C 19.945312 36.527344 19.5 36.632812 19.101562 36.84375 C 18.707031 37.046875 18.355469 37.324219 18.050781 37.671875 C 17.742188 38.011719 17.476562 38.40625 17.253906 38.855469 C 17.035156 39.300781 16.851562 39.765625 16.703125 40.25 C 16.5625 40.734375 16.457031 41.222656 16.386719 41.710938 C 16.320312 42.191406 16.285156 42.640625 16.285156 43.058594 C 16.285156 43.390625 16.304688 43.730469 16.347656 44.070312 C 16.390625 44.410156 16.464844 44.734375 16.558594 45.050781 C 16.65625 45.363281 16.777344 45.660156 16.929688 45.941406 C 17.082031 46.214844 17.261719 46.453125 17.472656 46.660156 C 17.6875 46.863281 17.933594 47.027344 18.214844 47.144531 C 18.492188 47.261719 18.8125 47.324219 19.167969 47.324219 C 19.417969 47.324219 19.65625 47.277344 19.882812 47.1875 C 20.113281 47.09375 20.328125 46.972656 20.53125 46.824219 C 20.730469 46.671875 20.910156 46.5 21.074219 46.308594 C 21.238281 46.117188 21.375 45.921875 21.492188 45.71875 L 21.574219 45.761719 C 21.496094 46.042969 21.363281 46.324219 21.175781 46.597656 C 20.988281 46.871094 20.761719 47.113281 20.503906 47.328125 C 20.246094 47.539062 19.964844 47.710938 19.65625 47.84375 C 19.355469 47.96875 19.050781 48.035156 18.742188 48.035156 C 18.335938 48.035156 17.96875 47.972656 17.636719 47.847656 C 17.308594 47.722656 17.011719 47.546875 16.75 47.328125 C 16.496094 47.105469 16.273438 46.84375 16.085938 46.550781 C 15.898438 46.246094 15.742188 45.921875 15.617188 45.578125 C 15.496094 45.226562 15.402344 44.859375 15.34375 44.480469 C 15.285156 44.097656 15.253906 43.714844 15.253906 43.332031 C 15.253906 42.828125 15.308594 42.304688 15.414062 41.757812 C 15.515625 41.210938 15.671875 40.671875 15.878906 40.140625 C 16.085938 39.613281 16.335938 39.109375 16.636719 38.636719 C 16.9375 38.15625 17.28125 37.738281 17.671875 37.375 C 18.0625 37.011719 18.492188 36.722656 18.964844 36.515625 C 19.441406 36.300781 19.953125 36.191406 20.503906 36.191406 C 20.84375 36.191406 21.160156 36.242188 21.441406 36.34375 C 21.726562 36.4375 21.96875 36.578125 22.171875 36.765625 C 22.378906 36.953125 22.535156 37.183594 22.644531 37.457031 C 22.753906 37.726562 22.808594 38.039062 22.808594 38.390625 Z M 26.980469 43.621094 C 26.980469 43.9375 26.925781 44.234375 26.820312 44.507812 C 26.714844 44.78125 26.566406 45.019531 26.375 45.222656 C 26.183594 45.421875 25.953125 45.578125 25.679688 45.691406 C 25.414062 45.808594 25.121094 45.863281 24.796875 45.863281 C 24.507812 45.863281 24.246094 45.8125 24.011719 45.707031 C 23.785156 45.597656 23.585938 45.453125 23.421875 45.269531 C 23.257812 45.085938 23.128906 44.875 23.042969 44.632812 C 22.957031 44.386719 22.914062 44.125 22.914062 43.84375 C 22.914062 43.613281 22.945312 43.390625 23.007812 43.179688 C 23.078125 42.972656 23.171875 42.777344 23.292969 42.597656 C 23.410156 42.417969 23.550781 42.25 23.71875 42.097656 C 23.882812 41.945312 24.058594 41.804688 24.253906 41.683594 L 24.335938 41.742188 C 24.144531 41.96875 23.992188 42.214844 23.882812 42.484375 C 23.773438 42.753906 23.71875 43.039062 23.71875 43.339844 C 23.71875 43.558594 23.75 43.78125 23.8125 44.007812 C 23.882812 44.234375 23.980469 44.4375 24.109375 44.625 C 24.238281 44.8125 24.398438 44.964844 24.589844 45.085938 C 24.78125 45.203125 25 45.261719 25.25 45.261719 C 25.40625 45.261719 25.550781 45.230469 25.6875 45.167969 C 25.824219 45.101562 25.945312 45.015625 26.046875 44.90625 C 26.152344 44.796875 26.234375 44.671875 26.292969 44.535156 C 26.355469 44.394531 26.390625 44.25 26.390625 44.097656 C 26.390625 43.953125 26.367188 43.8125 26.320312 43.675781 C 26.277344 43.53125 26.21875 43.402344 26.140625 43.285156 C 26.0625 43.160156 25.96875 43.050781 25.859375 42.957031 C 25.75 42.855469 25.632812 42.773438 25.503906 42.707031 C 25.429688 42.671875 25.359375 42.644531 25.289062 42.625 C 25.226562 42.609375 25.15625 42.585938 25.078125 42.566406 C 25.046875 42.558594 25.011719 42.554688 24.972656 42.542969 C 24.9375 42.53125 24.902344 42.515625 24.871094 42.503906 C 24.839844 42.484375 24.8125 42.460938 24.789062 42.433594 C 24.765625 42.40625 24.753906 42.375 24.753906 42.332031 C 24.753906 42.25 24.785156 42.175781 24.84375 42.105469 C 24.902344 42.039062 24.972656 41.980469 25.054688 41.929688 C 25.140625 41.875 25.226562 41.832031 25.316406 41.804688 C 25.410156 41.773438 25.488281 41.757812 25.558594 41.757812 C 25.792969 41.757812 25.996094 41.816406 26.175781 41.933594 C 26.355469 42.054688 26.503906 42.203125 26.621094 42.386719 C 26.742188 42.570312 26.832031 42.769531 26.890625 42.988281 C 26.949219 43.207031 26.980469 43.417969 26.980469 43.621094 Z M 31.199219 41.574219 L 31.265625 41.667969 C 31.183594 41.742188 31.070312 41.8125 30.929688 41.886719 C 30.789062 41.957031 30.628906 42.023438 30.449219 42.09375 C 30.269531 42.15625 30.078125 42.21875 29.871094 42.277344 C 29.671875 42.335938 29.46875 42.390625 29.265625 42.433594 C 29.273438 43.039062 29.269531 43.640625 29.261719 44.242188 C 29.25 44.84375 29.222656 45.445312 29.171875 46.050781 C 29.125 46.648438 29.050781 47.242188 28.949219 47.828125 C 28.855469 48.417969 28.71875 48.996094 28.539062 49.5625 L 28.367188 49.5625 L 28.367188 42.605469 C 28.253906 42.625 28.148438 42.636719 28.050781 42.648438 C 27.957031 42.652344 27.871094 42.652344 27.796875 42.652344 C 27.707031 42.652344 27.617188 42.648438 27.527344 42.640625 C 27.445312 42.625 27.371094 42.601562 27.300781 42.566406 C 27.238281 42.523438 27.1875 42.46875 27.144531 42.402344 C 27.101562 42.332031 27.082031 42.238281 27.082031 42.121094 C 27.082031 41.980469 27.128906 41.867188 27.21875 41.792969 C 27.3125 41.710938 27.425781 41.667969 27.558594 41.667969 C 27.691406 41.667969 27.824219 41.675781 27.957031 41.6875 C 28.09375 41.699219 28.230469 41.710938 28.367188 41.722656 L 28.367188 41.703125 C 28.367188 41.378906 28.375 41.023438 28.386719 40.632812 C 28.40625 40.242188 28.445312 39.851562 28.503906 39.457031 C 28.570312 39.066406 28.660156 38.683594 28.78125 38.3125 C 28.898438 37.945312 29.0625 37.617188 29.265625 37.335938 C 29.476562 37.046875 29.738281 36.816406 30.050781 36.644531 C 30.363281 36.46875 30.738281 36.382812 31.183594 36.382812 C 31.417969 36.382812 31.625 36.425781 31.800781 36.507812 C 31.980469 36.589844 32.128906 36.703125 32.25 36.847656 C 32.367188 36.992188 32.457031 37.160156 32.515625 37.355469 C 32.574219 37.546875 32.605469 37.753906 32.605469 37.972656 C 32.605469 38.210938 32.5625 38.441406 32.476562 38.671875 C 32.386719 38.898438 32.273438 39.113281 32.132812 39.3125 C 31.988281 39.515625 31.824219 39.699219 31.636719 39.867188 C 31.453125 40.03125 31.265625 40.171875 31.066406 40.285156 L 31 40.128906 C 31.132812 40.007812 31.246094 39.871094 31.339844 39.71875 C 31.441406 39.558594 31.523438 39.390625 31.589844 39.210938 C 31.652344 39.03125 31.699219 38.851562 31.726562 38.671875 C 31.757812 38.484375 31.773438 38.300781 31.773438 38.121094 C 31.773438 37.96875 31.757812 37.808594 31.71875 37.644531 C 31.683594 37.480469 31.625 37.332031 31.546875 37.199219 C 31.46875 37.0625 31.367188 36.953125 31.238281 36.871094 C 31.109375 36.78125 30.953125 36.738281 30.769531 36.738281 C 30.511719 36.738281 30.289062 36.808594 30.113281 36.953125 C 29.9375 37.09375 29.792969 37.277344 29.679688 37.5 C 29.570312 37.722656 29.484375 37.976562 29.425781 38.257812 C 29.367188 38.542969 29.320312 38.824219 29.292969 39.109375 C 29.273438 39.386719 29.257812 39.652344 29.253906 39.910156 C 29.253906 40.164062 29.253906 40.378906 29.253906 40.550781 C 29.253906 40.757812 29.253906 40.964844 29.253906 41.167969 C 29.253906 41.375 29.253906 41.578125 29.261719 41.785156 C 29.578125 41.785156 29.902344 41.773438 30.234375 41.75 C 30.574219 41.722656 30.894531 41.664062 31.199219 41.574219 Z M 34.796875 41.574219 L 34.867188 41.667969 C 34.78125 41.742188 34.671875 41.8125 34.527344 41.886719 C 34.386719 41.957031 34.226562 42.023438 34.046875 42.09375 C 33.871094 42.15625 33.675781 42.21875 33.472656 42.277344 C 33.269531 42.335938 33.066406 42.390625 32.867188 42.433594 C 32.871094 43.039062 32.867188 43.640625 32.859375 44.242188 C 32.851562 44.84375 32.820312 45.445312 32.769531 46.050781 C 32.722656 46.648438 32.652344 47.242188 32.550781 47.828125 C 32.453125 48.417969 32.316406 48.996094 32.136719 49.5625 L 31.964844 49.5625 L 31.964844 42.605469 C 31.851562 42.625 31.746094 42.636719 31.652344 42.648438 C 31.554688 42.652344 31.46875 42.652344 31.398438 42.652344 C 31.304688 42.652344 31.214844 42.648438 31.128906 42.640625 C 31.046875 42.625 30.96875 42.601562 30.902344 42.566406 C 30.835938 42.523438 30.785156 42.46875 30.742188 42.402344 C 30.703125 42.332031 30.683594 42.238281 30.683594 42.121094 C 30.683594 41.980469 30.726562 41.867188 30.820312 41.792969 C 30.910156 41.710938 31.023438 41.667969 31.15625 41.667969 C 31.289062 41.667969 31.421875 41.675781 31.554688 41.6875 C 31.691406 41.699219 31.828125 41.710938 31.964844 41.722656 L 31.964844 41.703125 C 31.964844 41.378906 31.972656 41.023438 31.988281 40.632812 C 32.003906 40.242188 32.042969 39.851562 32.105469 39.457031 C 32.167969 39.066406 32.257812 38.683594 32.378906 38.3125 C 32.496094 37.945312 32.660156 37.617188 32.867188 37.335938 C 33.078125 37.046875 33.339844 36.816406 33.648438 36.644531 C 33.960938 36.46875 34.339844 36.382812 34.78125 36.382812 C 35.015625 36.382812 35.222656 36.425781 35.402344 36.507812 C 35.578125 36.589844 35.730469 36.703125 35.847656 36.847656 C 35.964844 36.992188 36.054688 37.160156 36.117188 37.355469 C 36.175781 37.546875 36.203125 37.753906 36.203125 37.972656 C 36.203125 38.210938 36.160156 38.441406 36.074219 38.671875 C 35.988281 38.898438 35.871094 39.113281 35.730469 39.3125 C 35.589844 39.515625 35.425781 39.699219 35.238281 39.867188 C 35.054688 40.03125 34.863281 40.171875 34.667969 40.285156 L 34.597656 40.128906 C 34.730469 40.007812 34.84375 39.871094 34.941406 39.71875 C 35.042969 39.558594 35.125 39.390625 35.1875 39.210938 C 35.253906 39.03125 35.296875 38.851562 35.324219 38.671875 C 35.359375 38.484375 35.375 38.300781 35.375 38.121094 C 35.375 37.96875 35.355469 37.808594 35.320312 37.644531 C 35.28125 37.480469 35.226562 37.332031 35.148438 37.199219 C 35.070312 37.0625 34.964844 36.953125 34.839844 36.871094 C 34.710938 36.78125 34.554688 36.738281 34.371094 36.738281 C 34.109375 36.738281 33.890625 36.808594 33.710938 36.953125 C 33.539062 37.09375 33.394531 37.277344 33.277344 37.5 C 33.167969 37.722656 33.085938 37.976562 33.023438 38.257812 C 32.964844 38.542969 32.921875 38.824219 32.894531 39.109375 C 32.871094 39.386719 32.855469 39.652344 32.851562 39.910156 C 32.851562 40.164062 32.851562 40.378906 32.851562 40.550781 C 32.851562 40.757812 32.851562 40.964844 32.851562 41.167969 C 32.851562 41.375 32.855469 41.578125 32.859375 41.785156 C 33.175781 41.785156 33.5 41.773438 33.835938 41.75 C 34.175781 41.722656 34.496094 41.664062 34.796875 41.574219 Z M 39.089844 44.632812 L 39.144531 44.660156 C 39.027344 44.832031 38.882812 44.996094 38.710938 45.144531 C 38.546875 45.296875 38.363281 45.425781 38.164062 45.535156 C 37.964844 45.644531 37.757812 45.730469 37.539062 45.796875 C 37.324219 45.859375 37.105469 45.890625 36.886719 45.890625 C 36.574219 45.890625 36.28125 45.851562 36.011719 45.777344 C 35.742188 45.691406 35.507812 45.570312 35.304688 45.40625 C 35.105469 45.242188 34.945312 45.035156 34.832031 44.789062 C 34.714844 44.539062 34.660156 44.246094 34.660156 43.914062 C 34.660156 43.585938 34.71875 43.277344 34.839844 42.996094 C 34.960938 42.707031 35.128906 42.460938 35.339844 42.25 C 35.554688 42.035156 35.804688 41.867188 36.09375 41.742188 C 36.382812 41.621094 36.691406 41.558594 37.023438 41.558594 C 37.179688 41.558594 37.324219 41.582031 37.453125 41.628906 C 37.59375 41.667969 37.710938 41.730469 37.8125 41.820312 C 37.914062 41.902344 37.992188 42.003906 38.046875 42.125 C 38.105469 42.25 38.136719 42.390625 38.136719 42.550781 C 38.136719 42.742188 38.097656 42.910156 38.019531 43.058594 C 37.941406 43.203125 37.835938 43.332031 37.710938 43.441406 C 37.582031 43.550781 37.433594 43.640625 37.269531 43.714844 C 37.109375 43.789062 36.941406 43.847656 36.761719 43.894531 C 36.585938 43.9375 36.414062 43.972656 36.238281 43.996094 C 36.070312 44.015625 35.914062 44.023438 35.773438 44.023438 L 35.605469 44.023438 C 35.667969 44.4375 35.832031 44.753906 36.101562 44.972656 C 36.371094 45.195312 36.746094 45.304688 37.222656 45.304688 C 37.558594 45.304688 37.890625 45.242188 38.210938 45.125 C 38.535156 45.007812 38.828125 44.84375 39.089844 44.632812 Z M 35.585938 43.660156 L 35.585938 43.816406 L 35.757812 43.816406 C 35.921875 43.816406 36.09375 43.792969 36.265625 43.742188 C 36.441406 43.6875 36.597656 43.609375 36.734375 43.507812 C 36.875 43.40625 36.992188 43.277344 37.085938 43.125 C 37.175781 42.976562 37.222656 42.804688 37.222656 42.613281 C 37.222656 42.425781 37.179688 42.269531 37.097656 42.148438 C 37.019531 42.023438 36.882812 41.960938 36.6875 41.960938 C 36.484375 41.960938 36.3125 42.023438 36.171875 42.148438 C 36.03125 42.265625 35.921875 42.414062 35.832031 42.59375 C 35.746094 42.765625 35.683594 42.949219 35.640625 43.148438 C 35.605469 43.339844 35.585938 43.507812 35.585938 43.660156 Z M 41.289062 41.175781 L 41.210938 41.269531 C 40.765625 41.0625 40.363281 40.820312 40.011719 40.550781 C 39.664062 40.277344 39.347656 39.949219 39.0625 39.558594 L 39.941406 38.972656 C 40.019531 39.203125 40.105469 39.417969 40.203125 39.613281 C 40.300781 39.8125 40.402344 39.996094 40.511719 40.175781 C 40.625 40.347656 40.746094 40.519531 40.875 40.683594 C 41.007812 40.847656 41.144531 41.011719 41.289062 41.175781 Z M 46.082031 44.167969 C 46.082031 44.402344 46.039062 44.628906 45.953125 44.835938 C 45.863281 45.046875 45.742188 45.230469 45.589844 45.386719 C 45.433594 45.539062 45.25 45.664062 45.039062 45.753906 C 44.832031 45.847656 44.609375 45.890625 44.367188 45.890625 C 44.207031 45.890625 44.046875 45.867188 43.890625 45.816406 C 43.734375 45.765625 43.589844 45.695312 43.457031 45.605469 C 43.332031 45.507812 43.21875 45.394531 43.121094 45.261719 C 43.027344 45.128906 42.957031 44.984375 42.914062 44.824219 L 43.074219 44.78125 C 43.191406 44.929688 43.332031 45.050781 43.484375 45.144531 C 43.644531 45.242188 43.828125 45.289062 44.027344 45.289062 C 44.199219 45.289062 44.355469 45.253906 44.496094 45.179688 C 44.640625 45.105469 44.765625 45.011719 44.867188 44.890625 C 44.972656 44.773438 45.050781 44.636719 45.105469 44.480469 C 45.167969 44.320312 45.195312 44.160156 45.195312 43.996094 C 45.195312 43.800781 45.167969 43.636719 45.113281 43.507812 C 45.058594 43.378906 44.984375 43.269531 44.894531 43.179688 C 44.808594 43.089844 44.707031 43.011719 44.597656 42.949219 C 44.488281 42.878906 44.375 42.8125 44.261719 42.742188 C 44.152344 42.675781 44.042969 42.597656 43.941406 42.511719 C 43.839844 42.421875 43.75 42.3125 43.679688 42.175781 C 43.675781 42.445312 43.628906 42.726562 43.542969 43.023438 C 43.453125 43.320312 43.335938 43.609375 43.183594 43.886719 C 43.039062 44.164062 42.867188 44.425781 42.675781 44.667969 C 42.484375 44.910156 42.28125 45.113281 42.0625 45.277344 L 42.007812 45.179688 C 42.15625 45.023438 42.285156 44.832031 42.394531 44.597656 C 42.503906 44.367188 42.59375 44.121094 42.660156 43.867188 C 42.734375 43.605469 42.789062 43.34375 42.820312 43.085938 C 42.855469 42.824219 42.875 42.585938 42.875 42.375 C 42.875 42.257812 42.863281 42.148438 42.839844 42.039062 C 42.816406 41.929688 42.804688 41.820312 42.804688 41.714844 C 42.804688 41.589844 42.84375 41.492188 42.914062 41.421875 C 42.992188 41.351562 43.09375 41.320312 43.210938 41.320312 C 43.304688 41.320312 43.375 41.339844 43.429688 41.378906 C 43.484375 41.421875 43.535156 41.476562 43.582031 41.546875 C 43.628906 41.609375 43.675781 41.683594 43.71875 41.769531 C 43.765625 41.851562 43.824219 41.941406 43.890625 42.03125 C 43.964844 42.117188 44.054688 42.203125 44.160156 42.292969 C 44.269531 42.375 44.410156 42.445312 44.578125 42.511719 C 44.773438 42.582031 44.964844 42.667969 45.140625 42.761719 C 45.324219 42.855469 45.484375 42.964844 45.621094 43.09375 C 45.765625 43.21875 45.875 43.371094 45.960938 43.550781 C 46.042969 43.722656 46.082031 43.929688 46.082031 44.167969 Z M 64.820312 48.679688 L 64.863281 48.816406 C 64.707031 48.929688 64.539062 49.007812 64.355469 49.046875 C 64.175781 49.089844 63.996094 49.109375 63.8125 49.109375 C 63.183594 49.109375 62.625 49.019531 62.136719 48.835938 C 61.648438 48.648438 61.222656 48.394531 60.851562 48.070312 C 60.484375 47.746094 60.171875 47.363281 59.910156 46.925781 C 59.652344 46.488281 59.4375 46.015625 59.265625 45.507812 C 59.09375 45 58.964844 44.472656 58.871094 43.921875 C 58.78125 43.367188 58.71875 42.816406 58.6875 42.269531 C 58.65625 41.71875 58.644531 41.179688 58.660156 40.65625 C 58.679688 40.125 58.710938 39.636719 58.757812 39.183594 C 58.671875 39.304688 58.574219 39.503906 58.453125 39.773438 C 58.335938 40.042969 58.203125 40.355469 58.054688 40.714844 C 57.914062 41.078125 57.765625 41.472656 57.609375 41.902344 C 57.453125 42.324219 57.296875 42.753906 57.140625 43.1875 C 56.992188 43.621094 56.84375 44.046875 56.695312 44.46875 C 56.554688 44.882812 56.425781 45.261719 56.3125 45.605469 C 56.199219 45.945312 56.105469 46.238281 56.023438 46.480469 C 55.945312 46.71875 55.894531 46.878906 55.871094 46.960938 C 55.851562 47.015625 55.828125 47.082031 55.796875 47.164062 C 55.769531 47.246094 55.730469 47.328125 55.6875 47.40625 C 55.644531 47.480469 55.59375 47.546875 55.535156 47.601562 C 55.480469 47.65625 55.414062 47.683594 55.34375 47.683594 C 55.257812 47.683594 55.191406 47.652344 55.136719 47.589844 C 55.082031 47.519531 55.035156 47.441406 55 47.351562 C 54.964844 47.257812 54.9375 47.167969 54.917969 47.074219 C 54.898438 46.984375 54.882812 46.910156 54.875 46.855469 C 54.847656 46.664062 54.824219 46.421875 54.800781 46.132812 C 54.777344 45.839844 54.757812 45.515625 54.738281 45.160156 C 54.722656 44.804688 54.710938 44.425781 54.703125 44.023438 C 54.695312 43.617188 54.683594 43.210938 54.675781 42.804688 C 54.671875 42.394531 54.667969 41.992188 54.664062 41.601562 C 54.664062 41.203125 54.660156 40.832031 54.65625 40.492188 C 54.65625 40.144531 54.65625 39.832031 54.65625 39.558594 C 54.65625 39.285156 54.65625 39.066406 54.65625 38.902344 C 54.554688 39.132812 54.433594 39.421875 54.292969 39.773438 C 54.152344 40.125 54.003906 40.519531 53.835938 40.957031 C 53.675781 41.394531 53.507812 41.867188 53.328125 42.375 C 53.15625 42.875 52.980469 43.394531 52.808594 43.925781 C 52.636719 44.460938 52.472656 45 52.3125 45.542969 C 52.15625 46.085938 52.015625 46.613281 51.894531 47.125 C 51.878906 47.167969 51.863281 47.226562 51.839844 47.296875 C 51.820312 47.359375 51.796875 47.421875 51.761719 47.480469 C 51.730469 47.539062 51.691406 47.589844 51.640625 47.636719 C 51.59375 47.679688 51.535156 47.699219 51.46875 47.699219 C 51.402344 47.699219 51.347656 47.679688 51.296875 47.636719 C 51.246094 47.597656 51.203125 47.546875 51.164062 47.492188 C 51.132812 47.433594 51.105469 47.371094 51.082031 47.308594 C 51.066406 47.242188 51.054688 47.179688 51.050781 47.125 C 51.027344 47.011719 51.003906 46.882812 50.988281 46.746094 C 50.972656 46.609375 50.960938 46.472656 50.945312 46.328125 C 50.9375 46.183594 50.925781 46.042969 50.917969 45.90625 C 50.910156 45.765625 50.898438 45.632812 50.890625 45.515625 C 50.839844 44.890625 50.804688 44.273438 50.78125 43.660156 C 50.761719 43.046875 50.753906 42.433594 50.753906 41.8125 C 50.753906 41.199219 50.761719 40.59375 50.78125 39.992188 C 50.804688 39.390625 50.835938 38.78125 50.878906 38.164062 C 50.890625 37.984375 50.910156 37.785156 50.9375 37.566406 C 50.964844 37.34375 51.019531 37.132812 51.097656 36.9375 C 51.179688 36.742188 51.296875 36.578125 51.449219 36.445312 C 51.601562 36.3125 51.8125 36.246094 52.078125 36.246094 C 52.144531 36.246094 52.199219 36.261719 52.246094 36.292969 C 52.289062 36.320312 52.3125 36.371094 52.3125 36.445312 L 52.3125 36.515625 C 52.273438 36.789062 52.230469 37.0625 52.1875 37.335938 C 52.148438 37.605469 52.105469 37.878906 52.058594 38.164062 C 51.949219 39.074219 51.855469 39.988281 51.777344 40.902344 C 51.703125 41.808594 51.667969 42.726562 51.667969 43.648438 C 51.667969 44.007812 51.675781 44.363281 51.6875 44.714844 C 51.703125 45.066406 51.726562 45.417969 51.761719 45.777344 C 52.078125 44.800781 52.355469 43.933594 52.59375 43.179688 C 52.835938 42.429688 53.050781 41.769531 53.234375 41.203125 C 53.417969 40.636719 53.570312 40.15625 53.695312 39.757812 C 53.820312 39.355469 53.929688 39.019531 54.015625 38.753906 C 54.101562 38.484375 54.171875 38.269531 54.222656 38.109375 C 54.273438 37.945312 54.3125 37.820312 54.347656 37.730469 C 54.378906 37.640625 54.402344 37.574219 54.414062 37.535156 C 54.429688 37.492188 54.441406 37.457031 54.457031 37.425781 C 54.523438 37.269531 54.617188 37.128906 54.738281 37.007812 C 54.855469 36.882812 55.011719 36.820312 55.199219 36.820312 C 55.324219 36.820312 55.429688 36.855469 55.507812 36.917969 C 55.589844 36.980469 55.652344 37.0625 55.699219 37.15625 C 55.746094 37.253906 55.773438 37.359375 55.789062 37.472656 C 55.808594 37.585938 55.816406 37.691406 55.816406 37.785156 C 55.808594 38.496094 55.785156 39.195312 55.753906 39.886719 C 55.722656 40.578125 55.695312 41.261719 55.671875 41.941406 C 55.648438 42.621094 55.636719 43.296875 55.636719 43.96875 C 55.640625 44.640625 55.675781 45.308594 55.734375 45.972656 C 55.917969 45.433594 56.085938 44.929688 56.242188 44.453125 C 56.398438 43.976562 56.542969 43.519531 56.679688 43.085938 C 56.824219 42.652344 56.957031 42.234375 57.085938 41.832031 C 57.21875 41.429688 57.355469 41.035156 57.492188 40.640625 C 57.632812 40.25 57.78125 39.855469 57.933594 39.464844 C 58.082031 39.070312 58.25 38.667969 58.433594 38.253906 C 58.472656 38.171875 58.519531 38.089844 58.570312 38.007812 C 58.621094 37.917969 58.679688 37.839844 58.742188 37.773438 C 58.804688 37.703125 58.878906 37.648438 58.960938 37.601562 C 59.042969 37.554688 59.136719 37.535156 59.238281 37.535156 C 59.378906 37.535156 59.492188 37.578125 59.574219 37.671875 C 59.65625 37.761719 59.71875 37.871094 59.757812 38 C 59.804688 38.125 59.835938 38.261719 59.847656 38.402344 C 59.863281 38.539062 59.867188 38.65625 59.867188 38.753906 C 59.867188 39.171875 59.855469 39.636719 59.828125 40.148438 C 59.800781 40.65625 59.78125 41.183594 59.765625 41.730469 C 59.757812 42.277344 59.761719 42.832031 59.785156 43.394531 C 59.808594 43.953125 59.871094 44.496094 59.972656 45.023438 C 60.074219 45.546875 60.222656 46.039062 60.417969 46.496094 C 60.617188 46.949219 60.882812 47.351562 61.214844 47.691406 C 61.550781 48.03125 61.960938 48.296875 62.453125 48.492188 C 62.945312 48.6875 63.539062 48.789062 64.230469 48.789062 C 64.335938 48.789062 64.4375 48.78125 64.53125 48.765625 C 64.632812 48.75 64.730469 48.71875 64.820312 48.679688 Z M 63.378906 40.113281 C 63.378906 40.207031 63.359375 40.296875 63.316406 40.386719 C 63.277344 40.480469 63.222656 40.5625 63.152344 40.632812 C 63.089844 40.703125 63.011719 40.761719 62.925781 40.804688 C 62.839844 40.851562 62.75 40.875 62.65625 40.875 C 62.539062 40.875 62.441406 40.835938 62.371094 40.757812 C 62.300781 40.679688 62.265625 40.582031 62.265625 40.464844 C 62.265625 40.371094 62.285156 40.28125 62.328125 40.195312 C 62.371094 40.105469 62.421875 40.023438 62.484375 39.957031 C 62.554688 39.886719 62.628906 39.832031 62.710938 39.792969 C 62.800781 39.746094 62.890625 39.722656 62.980469 39.722656 C 63.101562 39.722656 63.195312 39.761719 63.269531 39.832031 C 63.34375 39.90625 63.378906 40 63.378906 40.113281 Z M 65.261719 44.632812 L 65.300781 44.660156 C 65.195312 44.832031 65.070312 44.992188 64.925781 45.140625 C 64.78125 45.28125 64.625 45.40625 64.449219 45.515625 C 64.28125 45.621094 64.097656 45.703125 63.902344 45.761719 C 63.707031 45.820312 63.507812 45.851562 63.304688 45.851562 C 63.046875 45.851562 62.816406 45.808594 62.617188 45.71875 C 62.417969 45.632812 62.253906 45.515625 62.113281 45.363281 C 61.980469 45.210938 61.878906 45.03125 61.804688 44.824219 C 61.738281 44.613281 61.703125 44.386719 61.703125 44.140625 C 61.703125 43.875 61.742188 43.625 61.820312 43.386719 C 61.898438 43.148438 62.003906 42.929688 62.140625 42.722656 C 62.28125 42.511719 62.441406 42.320312 62.625 42.148438 C 62.8125 41.972656 63.011719 41.820312 63.222656 41.683594 L 63.304688 41.742188 C 63.078125 42.007812 62.894531 42.304688 62.753906 42.632812 C 62.617188 42.960938 62.546875 43.304688 62.546875 43.660156 C 62.546875 43.867188 62.570312 44.0625 62.617188 44.253906 C 62.667969 44.441406 62.742188 44.609375 62.84375 44.753906 C 62.949219 44.902344 63.082031 45.019531 63.242188 45.105469 C 63.402344 45.191406 63.597656 45.234375 63.824219 45.234375 C 64.09375 45.234375 64.351562 45.175781 64.59375 45.0625 C 64.84375 44.949219 65.0625 44.804688 65.261719 44.632812 Z M 70.851562 44.632812 L 70.902344 44.660156 C 70.8125 44.824219 70.71875 44.980469 70.617188 45.132812 C 70.523438 45.28125 70.414062 45.414062 70.289062 45.527344 C 70.164062 45.644531 70.027344 45.734375 69.871094 45.804688 C 69.714844 45.871094 69.535156 45.90625 69.335938 45.90625 C 69.105469 45.90625 68.910156 45.851562 68.742188 45.742188 C 68.578125 45.628906 68.4375 45.480469 68.316406 45.296875 C 68.203125 45.109375 68.109375 44.898438 68.035156 44.660156 C 67.96875 44.421875 67.910156 44.179688 67.863281 43.933594 C 67.820312 43.6875 67.785156 43.445312 67.761719 43.207031 C 67.738281 42.964844 67.71875 42.75 67.699219 42.558594 C 67.613281 42.625 67.507812 42.757812 67.382812 42.957031 C 67.261719 43.148438 67.132812 43.371094 67.003906 43.632812 C 66.878906 43.894531 66.753906 44.175781 66.636719 44.480469 C 66.519531 44.789062 66.425781 45.089844 66.351562 45.386719 C 66.339844 45.449219 66.316406 45.515625 66.285156 45.582031 C 66.257812 45.652344 66.21875 45.714844 66.175781 45.777344 C 66.132812 45.832031 66.082031 45.878906 66.023438 45.917969 C 65.964844 45.957031 65.898438 45.972656 65.824219 45.972656 C 65.707031 45.972656 65.617188 45.933594 65.5625 45.851562 C 65.511719 45.769531 65.476562 45.675781 65.453125 45.570312 C 65.320312 44.992188 65.226562 44.4375 65.171875 43.90625 C 65.121094 43.378906 65.097656 42.847656 65.097656 42.320312 C 65.097656 42.191406 65.117188 42.082031 65.15625 41.988281 C 65.203125 41.894531 65.261719 41.816406 65.335938 41.757812 C 65.410156 41.691406 65.496094 41.648438 65.597656 41.621094 C 65.699219 41.589844 65.804688 41.574219 65.914062 41.574219 C 65.925781 41.574219 65.949219 41.574219 65.976562 41.574219 C 66.007812 41.574219 66.039062 41.578125 66.066406 41.585938 C 66.09375 41.589844 66.113281 41.601562 66.132812 41.613281 C 66.152344 41.628906 66.160156 41.644531 66.152344 41.667969 C 66.035156 42.265625 65.976562 42.875 65.980469 43.496094 C 65.988281 44.113281 66.019531 44.707031 66.078125 45.277344 C 66.128906 45.046875 66.203125 44.789062 66.296875 44.503906 C 66.398438 44.210938 66.511719 43.917969 66.640625 43.625 C 66.773438 43.328125 66.917969 43.046875 67.066406 42.785156 C 67.222656 42.515625 67.382812 42.289062 67.542969 42.105469 C 67.621094 42.019531 67.699219 41.945312 67.773438 41.886719 C 67.859375 41.824219 67.957031 41.792969 68.078125 41.792969 C 68.144531 41.792969 68.203125 41.804688 68.25 41.832031 C 68.296875 41.859375 68.332031 41.894531 68.359375 41.933594 C 68.390625 41.976562 68.414062 42.023438 68.429688 42.078125 C 68.445312 42.128906 68.460938 42.179688 68.46875 42.230469 C 68.492188 42.363281 68.515625 42.53125 68.539062 42.742188 C 68.558594 42.953125 68.589844 43.175781 68.621094 43.414062 C 68.65625 43.652344 68.699219 43.890625 68.75 44.132812 C 68.800781 44.371094 68.863281 44.585938 68.941406 44.78125 C 69.019531 44.972656 69.113281 45.132812 69.222656 45.253906 C 69.335938 45.378906 69.464844 45.441406 69.617188 45.441406 C 69.738281 45.441406 69.859375 45.417969 69.972656 45.371094 C 70.09375 45.320312 70.203125 45.261719 70.308594 45.1875 C 70.414062 45.109375 70.511719 45.023438 70.605469 44.925781 C 70.695312 44.828125 70.777344 44.726562 70.851562 44.632812 Z M 73.800781 42.050781 C 73.800781 42.101562 73.78125 42.148438 73.746094 42.1875 C 73.707031 42.226562 73.664062 42.242188 73.613281 42.242188 C 73.574219 42.242188 73.527344 42.230469 73.484375 42.210938 C 73.4375 42.179688 73.386719 42.152344 73.324219 42.121094 C 73.269531 42.089844 73.203125 42.0625 73.125 42.039062 C 73.054688 42.011719 72.96875 41.996094 72.871094 41.996094 C 72.648438 41.996094 72.445312 42.066406 72.265625 42.210938 C 72.09375 42.347656 71.945312 42.515625 71.820312 42.722656 C 71.703125 42.929688 71.609375 43.148438 71.546875 43.378906 C 71.480469 43.613281 71.449219 43.820312 71.449219 44.007812 C 71.449219 44.140625 71.460938 44.273438 71.484375 44.398438 C 71.507812 44.523438 71.546875 44.636719 71.601562 44.742188 C 71.660156 44.84375 71.742188 44.925781 71.839844 44.988281 C 71.941406 45.046875 72.070312 45.078125 72.226562 45.078125 C 72.390625 45.078125 72.550781 45.046875 72.699219 44.988281 C 72.851562 44.925781 72.992188 44.84375 73.125 44.742188 C 73.128906 44.597656 73.152344 44.441406 73.195312 44.28125 C 73.242188 44.117188 73.296875 43.960938 73.367188 43.804688 C 73.433594 43.644531 73.511719 43.492188 73.601562 43.351562 C 73.691406 43.210938 73.785156 43.085938 73.882812 42.976562 L 73.972656 43.03125 C 73.921875 43.1875 73.882812 43.34375 73.859375 43.507812 C 73.839844 43.675781 73.828125 43.835938 73.828125 43.996094 C 73.828125 44.160156 73.839844 44.316406 73.867188 44.460938 C 73.894531 44.605469 73.945312 44.734375 74.011719 44.84375 C 74.082031 44.949219 74.175781 45.035156 74.292969 45.097656 C 74.414062 45.15625 74.566406 45.1875 74.753906 45.1875 C 74.984375 45.1875 75.195312 45.132812 75.386719 45.03125 C 75.578125 44.925781 75.746094 44.792969 75.894531 44.632812 L 75.949219 44.660156 C 75.867188 44.820312 75.757812 44.972656 75.625 45.117188 C 75.492188 45.265625 75.34375 45.398438 75.179688 45.515625 C 75.019531 45.628906 74.847656 45.71875 74.664062 45.789062 C 74.480469 45.859375 74.300781 45.890625 74.121094 45.890625 C 73.871094 45.890625 73.664062 45.820312 73.503906 45.679688 C 73.34375 45.535156 73.234375 45.351562 73.175781 45.132812 C 72.980469 45.324219 72.765625 45.484375 72.527344 45.617188 C 72.296875 45.746094 72.046875 45.808594 71.785156 45.808594 C 71.59375 45.808594 71.421875 45.777344 71.273438 45.707031 C 71.125 45.632812 71 45.539062 70.902344 45.417969 C 70.800781 45.300781 70.722656 45.160156 70.667969 45 C 70.617188 44.835938 70.589844 44.667969 70.589844 44.488281 C 70.589844 44.28125 70.625 44.074219 70.6875 43.859375 C 70.757812 43.640625 70.847656 43.425781 70.960938 43.214844 C 71.082031 43.003906 71.222656 42.808594 71.382812 42.621094 C 71.542969 42.433594 71.714844 42.269531 71.902344 42.125 C 72.097656 41.984375 72.296875 41.875 72.507812 41.792969 C 72.71875 41.710938 72.933594 41.667969 73.152344 41.667969 C 73.203125 41.667969 73.265625 41.675781 73.339844 41.6875 C 73.414062 41.699219 73.484375 41.714844 73.550781 41.742188 C 73.621094 41.769531 73.679688 41.808594 73.722656 41.859375 C 73.773438 41.910156 73.800781 41.972656 73.800781 42.050781 Z M 80.113281 44.632812 L 80.152344 44.660156 C 80.050781 44.828125 79.933594 44.984375 79.796875 45.132812 C 79.664062 45.277344 79.515625 45.40625 79.347656 45.515625 C 79.1875 45.625 79.015625 45.710938 78.828125 45.777344 C 78.640625 45.835938 78.445312 45.863281 78.242188 45.863281 C 77.945312 45.863281 77.683594 45.8125 77.453125 45.714844 C 77.230469 45.613281 77.035156 45.480469 76.871094 45.308594 C 76.703125 45.136719 76.566406 44.9375 76.457031 44.707031 C 76.347656 44.480469 76.261719 44.242188 76.195312 43.996094 C 76.132812 43.746094 76.085938 43.488281 76.058594 43.230469 C 76.03125 42.96875 76.019531 42.71875 76.019531 42.484375 C 76.019531 42.265625 76.027344 42.039062 76.046875 41.8125 C 76.0625 41.578125 76.089844 41.34375 76.128906 41.101562 C 75.984375 41.105469 75.847656 41.105469 75.707031 41.105469 C 75.574219 41.105469 75.441406 41.105469 75.3125 41.105469 C 75.222656 41.105469 75.125 41.105469 75.015625 41.101562 C 74.90625 41.09375 74.800781 41.078125 74.707031 41.046875 C 74.609375 41.011719 74.53125 40.964844 74.464844 40.902344 C 74.402344 40.835938 74.371094 40.742188 74.371094 40.621094 C 74.371094 40.550781 74.382812 40.496094 74.402344 40.457031 C 74.429688 40.414062 74.464844 40.386719 74.507812 40.367188 C 74.550781 40.34375 74.601562 40.332031 74.65625 40.328125 C 74.71875 40.316406 74.777344 40.3125 74.835938 40.3125 C 74.90625 40.3125 75.066406 40.324219 75.324219 40.347656 C 75.582031 40.371094 75.890625 40.394531 76.25 40.421875 C 76.367188 39.882812 76.511719 39.355469 76.691406 38.835938 C 76.875 38.3125 77.082031 37.839844 77.308594 37.410156 L 77.40625 37.410156 C 77.257812 37.90625 77.128906 38.410156 77.015625 38.917969 C 76.902344 39.421875 76.820312 39.9375 76.765625 40.457031 C 77.101562 40.480469 77.445312 40.5 77.796875 40.519531 C 78.15625 40.53125 78.503906 40.539062 78.839844 40.539062 C 79.339844 40.539062 79.746094 40.535156 80.058594 40.523438 C 80.367188 40.515625 80.613281 40.503906 80.792969 40.492188 C 81.003906 40.472656 81.160156 40.453125 81.265625 40.4375 L 81.292969 40.550781 C 81.019531 40.617188 80.703125 40.679688 80.351562 40.738281 C 80 40.792969 79.625 40.84375 79.226562 40.886719 C 78.828125 40.929688 78.414062 40.964844 77.988281 40.996094 C 77.5625 41.03125 77.140625 41.054688 76.71875 41.074219 C 76.710938 41.164062 76.703125 41.257812 76.703125 41.351562 C 76.703125 41.445312 76.703125 41.535156 76.703125 41.628906 C 76.703125 41.847656 76.714844 42.089844 76.734375 42.351562 C 76.753906 42.617188 76.792969 42.882812 76.847656 43.152344 C 76.902344 43.417969 76.976562 43.679688 77.070312 43.933594 C 77.164062 44.183594 77.289062 44.410156 77.441406 44.605469 C 77.59375 44.796875 77.78125 44.953125 77.996094 45.070312 C 78.210938 45.1875 78.464844 45.25 78.757812 45.25 C 79.027344 45.25 79.273438 45.1875 79.488281 45.070312 C 79.707031 44.953125 79.914062 44.804688 80.113281 44.632812 Z M 83.746094 43.621094 C 83.746094 43.9375 83.691406 44.234375 83.585938 44.507812 C 83.484375 44.78125 83.332031 45.019531 83.140625 45.222656 C 82.949219 45.421875 82.71875 45.578125 82.449219 45.691406 C 82.183594 45.808594 81.886719 45.863281 81.5625 45.863281 C 81.273438 45.863281 81.011719 45.8125 80.777344 45.707031 C 80.550781 45.597656 80.351562 45.453125 80.1875 45.269531 C 80.023438 45.085938 79.898438 44.875 79.808594 44.632812 C 79.722656 44.386719 79.679688 44.125 79.679688 43.84375 C 79.679688 43.613281 79.710938 43.390625 79.777344 43.179688 C 79.84375 42.972656 79.9375 42.777344 80.058594 42.597656 C 80.175781 42.417969 80.316406 42.25 80.484375 42.097656 C 80.648438 41.945312 80.828125 41.804688 81.019531 41.683594 L 81.101562 41.742188 C 80.910156 41.96875 80.757812 42.214844 80.648438 42.484375 C 80.539062 42.753906 80.484375 43.039062 80.484375 43.339844 C 80.484375 43.558594 80.515625 43.78125 80.578125 44.007812 C 80.648438 44.234375 80.746094 44.4375 80.875 44.625 C 81.003906 44.8125 81.164062 44.964844 81.355469 45.085938 C 81.546875 45.203125 81.765625 45.261719 82.015625 45.261719 C 82.171875 45.261719 82.316406 45.230469 82.453125 45.167969 C 82.589844 45.101562 82.710938 45.015625 82.8125 44.90625 C 82.917969 44.796875 83 44.671875 83.058594 44.535156 C 83.121094 44.394531 83.15625 44.25 83.15625 44.097656 C 83.15625 43.953125 83.132812 43.8125 83.085938 43.675781 C 83.046875 43.53125 82.984375 43.402344 82.90625 43.285156 C 82.828125 43.160156 82.734375 43.050781 82.625 42.957031 C 82.515625 42.855469 82.398438 42.773438 82.269531 42.707031 C 82.195312 42.671875 82.125 42.644531 82.054688 42.625 C 81.992188 42.609375 81.921875 42.585938 81.84375 42.566406 C 81.8125 42.558594 81.777344 42.554688 81.738281 42.542969 C 81.703125 42.53125 81.667969 42.515625 81.636719 42.503906 C 81.605469 42.484375 81.578125 42.460938 81.554688 42.433594 C 81.53125 42.40625 81.519531 42.375 81.519531 42.332031 C 81.519531 42.25 81.550781 42.175781 81.609375 42.105469 C 81.667969 42.039062 81.738281 41.980469 81.824219 41.929688 C 81.90625 41.875 81.992188 41.832031 82.082031 41.804688 C 82.175781 41.773438 82.253906 41.757812 82.324219 41.757812 C 82.558594 41.757812 82.761719 41.816406 82.941406 41.933594 C 83.121094 42.054688 83.269531 42.203125 83.386719 42.386719 C 83.507812 42.570312 83.597656 42.769531 83.65625 42.988281 C 83.714844 43.207031 83.746094 43.417969 83.746094 43.621094 Z M 83.746094 43.621094 "/>
<path style=" stroke:none;fill-rule:nonzero;fill:rgb(100%,82.745098%,28.235294%);fill-opacity:1;" d="M 26.632812 56.667969 L 26.695312 57.339844 C 26.695312 57.410156 26.65625 57.46875 26.578125 57.511719 C 26.507812 57.550781 26.449219 57.574219 26.398438 57.574219 C 26.300781 57.574219 26.210938 57.496094 26.136719 57.339844 C 26.066406 57.179688 26.03125 57.035156 26.03125 56.898438 C 26.03125 56.382812 26.207031 55.941406 26.566406 55.585938 C 26.933594 55.222656 27.394531 54.949219 27.949219 54.765625 C 27.949219 54.527344 28 54.304688 28.097656 54.09375 C 28.203125 53.875 28.363281 53.765625 28.582031 53.765625 C 28.675781 53.765625 28.71875 53.894531 28.71875 54.15625 L 28.71875 54.597656 C 28.945312 54.570312 29.109375 54.554688 29.214844 54.554688 C 30.152344 54.554688 30.890625 54.816406 31.429688 55.34375 C 31.980469 55.863281 32.253906 56.519531 32.253906 57.308594 C 32.253906 57.855469 32.15625 58.339844 31.960938 58.761719 C 31.761719 59.183594 31.496094 59.515625 31.15625 59.761719 C 30.480469 60.25 29.671875 60.496094 28.730469 60.496094 L 28.507812 60.496094 C 28.488281 60.699219 28.460938 60.800781 28.425781 60.800781 C 28.09375 60.800781 27.871094 60.753906 27.761719 60.664062 C 27.710938 60.613281 27.683594 60.53125 27.675781 60.410156 C 27.050781 60.238281 26.738281 60.042969 26.738281 59.832031 C 26.738281 59.761719 26.761719 59.710938 26.808594 59.675781 C 26.859375 59.632812 26.914062 59.613281 26.96875 59.613281 C 27.03125 59.613281 27.265625 59.695312 27.675781 59.863281 C 27.738281 58.027344 27.820312 56.453125 27.917969 55.132812 C 27.53125 55.265625 27.21875 55.464844 26.980469 55.734375 C 26.746094 56 26.632812 56.3125 26.632812 56.667969 Z M 28.929688 54.964844 C 28.832031 54.964844 28.757812 54.96875 28.710938 54.976562 C 28.679688 56.203125 28.644531 57.234375 28.605469 58.066406 C 28.570312 59.152344 28.542969 59.835938 28.53125 60.117188 C 28.671875 60.136719 28.820312 60.148438 28.972656 60.148438 C 29.640625 60.148438 30.222656 59.902344 30.714844 59.414062 C 31.207031 58.914062 31.453125 58.304688 31.453125 57.582031 C 31.453125 56.863281 31.21875 56.246094 30.746094 55.734375 C 30.273438 55.222656 29.667969 54.964844 28.929688 54.964844 Z M 33.996094 60.496094 C 33.601562 60.496094 33.289062 60.347656 33.054688 60.054688 C 32.824219 59.753906 32.707031 59.414062 32.707031 59.035156 C 32.707031 58.269531 32.871094 57.691406 33.195312 57.300781 C 33.515625 56.90625 33.9375 56.710938 34.449219 56.710938 C 34.6875 56.710938 34.886719 56.777344 35.039062 56.910156 C 35.195312 57.035156 35.273438 57.210938 35.273438 57.4375 C 35.273438 57.855469 35.09375 58.210938 34.734375 58.5 C 34.382812 58.777344 33.949219 58.925781 33.4375 58.941406 C 33.464844 59.214844 33.554688 59.453125 33.710938 59.65625 C 33.871094 59.851562 34.058594 59.949219 34.269531 59.949219 C 34.480469 59.949219 34.671875 59.898438 34.839844 59.800781 C 35.007812 59.703125 35.164062 59.5625 35.304688 59.382812 C 35.597656 58.996094 35.851562 58.558594 36.0625 58.066406 C 36.121094 57.941406 36.160156 57.851562 36.191406 57.792969 C 36.226562 57.738281 36.261719 57.710938 36.296875 57.710938 C 36.335938 57.710938 36.359375 57.738281 36.359375 57.792969 C 36.359375 58.144531 36.144531 58.671875 35.714844 59.371094 C 35.25 60.121094 34.679688 60.496094 33.996094 60.496094 Z M 33.4375 58.6875 C 33.851562 58.617188 34.152344 58.484375 34.34375 58.289062 C 34.539062 58.089844 34.640625 57.835938 34.640625 57.519531 C 34.640625 57.203125 34.535156 57.046875 34.332031 57.046875 C 34.085938 57.046875 33.878906 57.21875 33.710938 57.5625 C 33.542969 57.898438 33.449219 58.273438 33.4375 58.6875 Z M 36.570312 60.496094 C 36.414062 60.496094 36.269531 60.476562 36.136719 60.445312 C 36.011719 60.402344 35.933594 60.363281 35.90625 60.328125 C 35.835938 60.242188 35.800781 59.808594 35.800781 59.023438 C 35.800781 58.230469 35.886719 57.160156 36.0625 55.804688 C 36.210938 54.691406 36.554688 54.132812 37.097656 54.132812 C 37.222656 54.132812 37.316406 54.203125 37.371094 54.34375 C 37.429688 54.476562 37.457031 54.609375 37.457031 54.734375 C 37.457031 55.644531 37.179688 56.664062 36.621094 57.792969 C 36.601562 58.375 36.589844 58.882812 36.589844 59.320312 C 36.589844 59.746094 36.628906 59.960938 36.707031 59.960938 C 36.828125 59.953125 36.992188 59.804688 37.203125 59.519531 C 37.414062 59.222656 37.621094 58.847656 37.824219 58.394531 C 38.035156 57.9375 38.164062 57.710938 38.207031 57.710938 C 38.253906 57.710938 38.277344 57.738281 38.277344 57.792969 C 38.277344 57.988281 38.175781 58.300781 37.972656 58.730469 C 37.417969 59.90625 36.949219 60.496094 36.570312 60.496094 Z M 37.191406 54.828125 C 37.191406 54.605469 37.164062 54.492188 37.109375 54.492188 C 36.898438 54.492188 36.742188 55.363281 36.644531 57.109375 C 37.007812 56.148438 37.191406 55.390625 37.191406 54.828125 Z M 38.035156 55.300781 C 38.035156 55.175781 38.101562 55.066406 38.238281 54.976562 C 38.371094 54.886719 38.488281 54.839844 38.59375 54.839844 C 38.785156 54.839844 38.878906 54.949219 38.878906 55.164062 C 38.878906 55.382812 38.824219 55.570312 38.710938 55.734375 C 38.597656 55.886719 38.441406 55.964844 38.238281 55.964844 C 38.101562 55.964844 38.035156 55.742188 38.035156 55.300781 Z M 38.34375 60.496094 C 38.066406 60.496094 37.859375 60.441406 37.71875 60.328125 C 37.671875 60.277344 37.644531 60.101562 37.644531 59.800781 C 37.644531 59.5 37.667969 59 37.710938 58.296875 C 37.757812 57.589844 37.800781 57.207031 37.835938 57.152344 C 37.871094 57.097656 37.980469 56.992188 38.164062 56.835938 C 38.347656 56.683594 38.488281 56.605469 38.585938 56.605469 C 38.691406 56.605469 38.742188 56.738281 38.742188 57.003906 C 38.742188 57.074219 38.722656 57.210938 38.679688 57.414062 C 38.644531 57.617188 38.601562 57.765625 38.554688 57.855469 C 38.460938 58.089844 38.417969 58.695312 38.417969 59.675781 C 38.417969 59.863281 38.4375 59.960938 38.480469 59.960938 C 38.597656 59.953125 38.765625 59.804688 38.976562 59.519531 C 39.1875 59.222656 39.394531 58.847656 39.597656 58.394531 C 39.808594 57.9375 39.9375 57.710938 39.976562 57.710938 C 40.027344 57.710938 40.050781 57.738281 40.050781 57.792969 C 40.050781 57.988281 39.949219 58.300781 39.746094 58.730469 C 39.191406 59.90625 38.722656 60.496094 38.34375 60.496094 Z M 41.382812 57.886719 L 41.464844 57.351562 C 41.464844 57.273438 41.441406 57.203125 41.390625 57.140625 C 41.34375 57.078125 41.277344 57.046875 41.203125 57.046875 C 40.941406 57.046875 40.714844 57.242188 40.527344 57.636719 C 40.335938 58.023438 40.242188 58.394531 40.242188 58.75 C 40.242188 59.109375 40.316406 59.398438 40.464844 59.625 C 40.609375 59.839844 40.789062 59.949219 41 59.949219 C 41.21875 59.949219 41.414062 59.898438 41.582031 59.800781 C 41.75 59.703125 41.90625 59.5625 42.046875 59.382812 C 42.339844 58.996094 42.59375 58.558594 42.804688 58.066406 C 42.863281 57.941406 42.902344 57.851562 42.933594 57.792969 C 42.96875 57.738281 43.003906 57.710938 43.039062 57.710938 C 43.078125 57.710938 43.101562 57.738281 43.101562 57.792969 C 43.101562 58.023438 43.019531 58.300781 42.859375 58.625 C 42.695312 58.945312 42.558594 59.195312 42.445312 59.371094 C 42.339844 59.539062 42.203125 59.71875 42.035156 59.90625 C 41.683594 60.300781 41.242188 60.496094 40.714844 60.496094 C 40.316406 60.496094 40.007812 60.355469 39.796875 60.074219 C 39.59375 59.789062 39.492188 59.484375 39.492188 59.160156 C 39.492188 58.363281 39.664062 57.753906 40.007812 57.339844 C 40.359375 56.921875 40.804688 56.710938 41.339844 56.710938 C 41.5625 56.710938 41.738281 56.769531 41.867188 56.890625 C 42 57 42.066406 57.132812 42.066406 57.277344 C 42.066406 57.550781 42.019531 57.753906 41.917969 57.886719 C 41.820312 58.023438 41.699219 58.089844 41.558594 58.089844 C 41.441406 58.089844 41.382812 58.023438 41.382812 57.886719 Z M 42.902344 55.300781 C 42.902344 55.175781 42.96875 55.066406 43.101562 54.976562 C 43.234375 54.886719 43.355469 54.839844 43.460938 54.839844 C 43.648438 54.839844 43.746094 54.949219 43.746094 55.164062 C 43.746094 55.382812 43.6875 55.570312 43.574219 55.734375 C 43.464844 55.886719 43.304688 55.964844 43.101562 55.964844 C 42.96875 55.964844 42.902344 55.742188 42.902344 55.300781 Z M 43.207031 60.496094 C 42.933594 60.496094 42.722656 60.441406 42.582031 60.328125 C 42.535156 60.277344 42.511719 60.101562 42.511719 59.800781 C 42.511719 59.5 42.53125 59 42.574219 58.296875 C 42.621094 57.589844 42.664062 57.207031 42.699219 57.152344 C 42.734375 57.097656 42.84375 56.992188 43.027344 56.835938 C 43.210938 56.683594 43.351562 56.605469 43.449219 56.605469 C 43.554688 56.605469 43.605469 56.738281 43.605469 57.003906 C 43.605469 57.074219 43.585938 57.210938 43.542969 57.414062 C 43.507812 57.617188 43.464844 57.765625 43.417969 57.855469 C 43.324219 58.089844 43.28125 58.695312 43.28125 59.675781 C 43.28125 59.863281 43.300781 59.960938 43.34375 59.960938 C 43.464844 59.953125 43.628906 59.804688 43.839844 59.519531 C 44.050781 59.222656 44.257812 58.847656 44.460938 58.394531 C 44.671875 57.9375 44.800781 57.710938 44.839844 57.710938 C 44.890625 57.710938 44.914062 57.738281 44.914062 57.792969 C 44.914062 57.988281 44.8125 58.300781 44.609375 58.730469 C 44.054688 59.90625 43.585938 60.496094 43.207031 60.496094 Z M 47.660156 58.160156 C 47.941406 58.070312 48.132812 57.992188 48.238281 57.929688 C 48.351562 57.859375 48.4375 57.808594 48.492188 57.773438 L 48.617188 57.699219 C 48.652344 57.679688 48.683594 57.667969 48.703125 57.667969 C 48.757812 57.667969 48.789062 57.699219 48.789062 57.761719 C 48.789062 57.824219 48.679688 57.9375 48.460938 58.097656 C 48.242188 58.253906 47.972656 58.394531 47.648438 58.519531 C 47.597656 59.109375 47.414062 59.585938 47.089844 59.949219 C 46.765625 60.3125 46.304688 60.496094 45.707031 60.496094 C 45.269531 60.496094 44.9375 60.324219 44.703125 59.980469 C 44.472656 59.628906 44.355469 59.222656 44.355469 58.761719 C 44.355469 58.292969 44.492188 57.851562 44.769531 57.4375 C 45.050781 57.023438 45.40625 56.816406 45.84375 56.816406 C 46.042969 56.675781 46.273438 56.605469 46.539062 56.605469 C 46.816406 56.605469 47.066406 56.75 47.300781 57.035156 C 47.53125 57.324219 47.652344 57.699219 47.660156 58.160156 Z M 46.972656 58.699219 L 46.59375 58.71875 C 46.269531 58.71875 45.996094 58.625 45.769531 58.433594 C 45.546875 58.238281 45.433594 58.023438 45.433594 57.792969 C 45.433594 57.5625 45.472656 57.363281 45.546875 57.195312 C 45.246094 57.433594 45.09375 57.902344 45.09375 58.601562 C 45.09375 58.941406 45.164062 59.261719 45.304688 59.570312 C 45.445312 59.871094 45.667969 60.023438 45.972656 60.023438 C 46.273438 60.023438 46.507812 59.898438 46.675781 59.644531 C 46.847656 59.386719 46.945312 59.070312 46.972656 58.699219 Z M 46.320312 56.953125 C 46.207031 56.953125 46.117188 57.003906 46.054688 57.109375 C 45.992188 57.207031 45.960938 57.316406 45.960938 57.4375 C 45.960938 57.695312 46.046875 57.90625 46.222656 58.066406 C 46.40625 58.226562 46.617188 58.308594 46.855469 58.308594 L 46.984375 58.308594 C 46.96875 57.964844 46.910156 57.652344 46.804688 57.375 C 46.707031 57.09375 46.542969 56.953125 46.320312 56.953125 Z M 48.195312 59.527344 L 48.261719 58.351562 C 48.261719 57.601562 48.296875 57.191406 48.367188 57.121094 C 48.4375 57.050781 48.558594 56.949219 48.734375 56.816406 C 48.917969 56.675781 49.046875 56.605469 49.125 56.605469 C 49.210938 56.605469 49.261719 56.621094 49.285156 56.648438 C 49.304688 56.675781 49.316406 56.730469 49.316406 56.816406 C 49.316406 57.117188 49.25 57.421875 49.113281 57.730469 C 49.007812 58.375 48.957031 58.90625 48.957031 59.320312 C 48.957031 59.730469 49.023438 59.9375 49.15625 59.9375 C 49.320312 59.9375 49.507812 59.796875 49.726562 59.519531 C 49.945312 59.238281 50.164062 58.820312 50.382812 58.265625 C 50.445312 57.566406 50.492188 57.1875 50.527344 57.132812 C 50.570312 57.074219 50.667969 56.972656 50.824219 56.828125 C 50.980469 56.679688 51.105469 56.605469 51.203125 56.605469 C 51.308594 56.605469 51.363281 56.738281 51.363281 57.003906 C 51.363281 57.074219 51.339844 57.210938 51.300781 57.414062 C 51.265625 57.617188 51.222656 57.765625 51.171875 57.855469 C 51.09375 58.054688 51.054688 58.660156 51.054688 59.675781 C 51.054688 59.863281 51.078125 59.960938 51.121094 59.960938 C 51.238281 59.953125 51.40625 59.804688 51.617188 59.519531 C 51.828125 59.222656 52.035156 58.847656 52.238281 58.394531 C 52.449219 57.9375 52.574219 57.710938 52.617188 57.710938 C 52.667969 57.710938 52.691406 57.738281 52.691406 57.792969 C 52.691406 57.988281 52.589844 58.300781 52.386719 58.730469 C 51.828125 59.90625 51.363281 60.496094 50.980469 60.496094 C 50.707031 60.496094 50.5 60.441406 50.359375 60.328125 C 50.3125 60.277344 50.285156 60.128906 50.285156 59.875 C 50.285156 59.625 50.296875 59.34375 50.316406 59.035156 C 50.09375 59.511719 49.867188 59.875 49.640625 60.128906 C 49.417969 60.375 49.164062 60.496094 48.882812 60.496094 C 48.609375 60.496094 48.425781 60.421875 48.335938 60.273438 C 48.242188 60.128906 48.195312 59.878906 48.195312 59.527344 Z M 53.609375 57.226562 L 53.628906 57.066406 C 53.628906 56.941406 53.558594 56.878906 53.410156 56.878906 C 53.269531 56.878906 53.132812 56.972656 52.996094 57.164062 C 52.863281 57.34375 52.796875 57.496094 52.796875 57.613281 C 52.796875 57.734375 52.804688 57.828125 52.816406 57.898438 C 52.832031 57.96875 52.847656 58.027344 52.859375 58.078125 C 52.882812 58.121094 52.914062 58.171875 52.957031 58.234375 C 52.996094 58.296875 53.027344 58.34375 53.050781 58.371094 L 53.167969 58.519531 C 53.214844 58.589844 53.25 58.636719 53.273438 58.65625 C 53.636719 58.355469 54.074219 58.019531 54.582031 57.648438 C 54.609375 57.625 54.640625 57.613281 54.675781 57.613281 C 54.746094 57.613281 54.78125 57.652344 54.78125 57.730469 C 54.78125 57.808594 54.75 57.867188 54.6875 57.910156 C 54.234375 58.195312 53.808594 58.507812 53.410156 58.84375 C 53.5625 59.070312 53.640625 59.316406 53.640625 59.582031 C 53.640625 59.847656 53.539062 60.074219 53.335938 60.265625 C 53.132812 60.453125 52.871094 60.546875 52.554688 60.546875 C 52.238281 60.546875 52.078125 60.398438 52.078125 60.097656 C 52.078125 59.878906 52.3125 59.546875 52.777344 59.097656 C 52.742188 59.054688 52.675781 58.988281 52.585938 58.898438 C 52.496094 58.800781 52.425781 58.722656 52.375 58.667969 C 52.332031 58.609375 52.28125 58.535156 52.21875 58.445312 C 52.105469 58.269531 52.046875 58.082031 52.046875 57.878906 C 52.046875 57.464844 52.183594 57.132812 52.449219 56.878906 C 52.714844 56.621094 53 56.488281 53.304688 56.488281 C 53.492188 56.488281 53.640625 56.542969 53.746094 56.648438 C 53.851562 56.746094 53.90625 56.847656 53.90625 56.953125 C 53.90625 57.191406 53.847656 57.308594 53.734375 57.308594 C 53.652344 57.308594 53.609375 57.28125 53.609375 57.226562 Z M 52.933594 59.296875 C 52.652344 59.578125 52.511719 59.804688 52.511719 59.980469 C 52.511719 60.148438 52.601562 60.234375 52.777344 60.234375 C 52.882812 60.234375 52.96875 60.191406 53.039062 60.105469 C 53.195312 59.898438 53.160156 59.625 52.933594 59.296875 Z M 60.667969 58.707031 C 60.71875 58.636719 60.789062 58.515625 60.878906 58.339844 C 61.105469 57.941406 61.238281 57.742188 61.28125 57.742188 C 61.328125 57.742188 61.355469 57.769531 61.355469 57.824219 C 61.355469 58.167969 61.175781 58.601562 60.816406 59.128906 C 60.167969 60.074219 59.308594 60.546875 58.230469 60.546875 C 57.929688 60.546875 57.652344 60.476562 57.398438 60.339844 C 57.144531 60.199219 56.945312 60.019531 56.796875 59.800781 C 56.492188 59.359375 56.34375 58.898438 56.34375 58.414062 C 56.34375 57.195312 56.660156 56.214844 57.292969 55.46875 C 57.933594 54.71875 58.6875 54.34375 59.558594 54.34375 C 59.890625 54.34375 60.160156 54.441406 60.371094 54.640625 C 60.582031 54.828125 60.6875 55.070312 60.6875 55.363281 C 60.6875 55.660156 60.617188 55.933594 60.46875 56.183594 C 60.320312 56.4375 60.140625 56.5625 59.929688 56.5625 C 59.726562 56.5625 59.625 56.507812 59.625 56.394531 C 59.625 56.269531 59.691406 56.125 59.824219 55.964844 C 59.964844 55.804688 60.035156 55.640625 60.035156 55.480469 C 60.035156 54.984375 59.769531 54.734375 59.234375 54.734375 C 58.707031 54.734375 58.226562 55.089844 57.796875 55.796875 C 57.371094 56.503906 57.15625 57.234375 57.15625 57.984375 C 57.15625 58.5 57.300781 58.964844 57.597656 59.371094 C 57.894531 59.769531 58.308594 59.96875 58.84375 59.96875 C 59.476562 59.96875 60.085938 59.550781 60.667969 58.707031 Z M 63.992188 58.160156 C 64.273438 58.070312 64.464844 57.992188 64.570312 57.929688 C 64.683594 57.859375 64.769531 57.808594 64.824219 57.773438 L 64.953125 57.699219 C 64.988281 57.679688 65.015625 57.667969 65.035156 57.667969 C 65.09375 57.667969 65.121094 57.699219 65.121094 57.761719 C 65.121094 57.824219 65.011719 57.9375 64.792969 58.097656 C 64.574219 58.253906 64.304688 58.394531 63.980469 58.519531 C 63.933594 59.109375 63.746094 59.585938 63.421875 59.949219 C 63.097656 60.3125 62.636719 60.496094 62.039062 60.496094 C 61.605469 60.496094 61.269531 60.324219 61.039062 59.980469 C 60.804688 59.628906 60.6875 59.222656 60.6875 58.761719 C 60.6875 58.292969 60.828125 57.851562 61.101562 57.4375 C 61.382812 57.023438 61.742188 56.816406 62.175781 56.816406 C 62.375 56.675781 62.605469 56.605469 62.875 56.605469 C 63.148438 56.605469 63.402344 56.75 63.632812 57.035156 C 63.863281 57.324219 63.984375 57.699219 63.992188 58.160156 Z M 63.304688 58.699219 L 62.925781 58.71875 C 62.601562 58.71875 62.328125 58.625 62.101562 58.433594 C 61.878906 58.238281 61.765625 58.023438 61.765625 57.792969 C 61.765625 57.5625 61.804688 57.363281 61.882812 57.195312 C 61.578125 57.433594 61.429688 57.902344 61.429688 58.601562 C 61.429688 58.941406 61.5 59.261719 61.640625 59.570312 C 61.78125 59.871094 62 60.023438 62.304688 60.023438 C 62.605469 60.023438 62.839844 59.898438 63.011719 59.644531 C 63.179688 59.386719 63.277344 59.070312 63.304688 58.699219 Z M 62.652344 56.953125 C 62.539062 56.953125 62.453125 57.003906 62.386719 57.109375 C 62.324219 57.207031 62.292969 57.316406 62.292969 57.4375 C 62.292969 57.695312 62.382812 57.90625 62.558594 58.066406 C 62.738281 58.226562 62.949219 58.308594 63.191406 58.308594 L 63.316406 58.308594 C 63.300781 57.964844 63.242188 57.652344 63.136719 57.375 C 63.039062 57.09375 62.875 56.953125 62.652344 56.953125 Z M 66.101562 58.226562 C 66.480469 58.132812 66.796875 58.019531 67.050781 57.878906 C 67.3125 57.738281 67.449219 57.667969 67.464844 57.667969 C 67.503906 57.667969 67.527344 57.703125 67.527344 57.773438 C 67.527344 57.84375 67.457031 57.929688 67.316406 58.035156 C 67.019531 58.253906 66.652344 58.4375 66.207031 58.59375 C 66.390625 59.285156 66.480469 60.023438 66.480469 60.800781 C 66.480469 61.453125 66.40625 62.078125 66.261719 62.671875 C 66.175781 63.007812 66.042969 63.28125 65.859375 63.492188 C 65.683594 63.703125 65.464844 63.808594 65.203125 63.808594 C 64.980469 63.808594 64.824219 63.710938 64.742188 63.511719 C 64.636719 63.28125 64.574219 63.0625 64.5625 62.851562 C 64.539062 62.523438 64.53125 61.984375 64.53125 61.242188 C 64.53125 60.5 64.585938 59.601562 64.699219 58.550781 C 64.445312 58.367188 64.320312 58.148438 64.320312 57.886719 C 64.320312 57.621094 64.375 57.417969 64.488281 57.277344 C 64.601562 57.132812 64.742188 57.035156 64.910156 56.996094 C 65.007812 56.386719 65.101562 55.859375 65.195312 55.417969 C 65.292969 54.976562 65.441406 54.617188 65.636719 54.34375 C 65.835938 54.066406 66.03125 53.925781 66.226562 53.925781 C 66.453125 53.925781 66.566406 54.171875 66.566406 54.671875 C 66.566406 55.457031 66.273438 56.339844 65.691406 57.320312 C 65.839844 57.53125 65.976562 57.832031 66.101562 58.226562 Z M 65.363281 58.75 C 65.300781 59.613281 65.269531 60.605469 65.269531 61.726562 C 65.269531 62.839844 65.328125 63.398438 65.449219 63.398438 C 65.660156 63.398438 65.835938 63.125 65.976562 62.578125 C 66.117188 62.023438 66.1875 61.40625 66.1875 60.726562 C 66.1875 60.039062 66.109375 59.351562 65.953125 58.667969 C 65.742188 58.722656 65.546875 58.75 65.363281 58.75 Z M 65.523438 57.171875 C 65.726562 56.835938 65.910156 56.441406 66.082031 55.984375 C 66.25 55.523438 66.332031 55.136719 66.332031 54.828125 C 66.332031 54.519531 66.300781 54.367188 66.238281 54.367188 C 66.125 54.367188 66.003906 54.621094 65.871094 55.132812 C 65.742188 55.644531 65.628906 56.324219 65.523438 57.171875 Z M 65.523438 57.59375 L 65.457031 57.699219 L 65.40625 58.234375 C 65.496094 58.261719 65.578125 58.277344 65.648438 58.277344 C 65.726562 58.277344 65.789062 58.273438 65.839844 58.265625 C 65.746094 57.992188 65.640625 57.769531 65.523438 57.59375 Z M 64.867188 57.257812 C 64.761719 57.292969 64.710938 57.375 64.710938 57.5 C 64.710938 57.625 64.738281 57.734375 64.792969 57.824219 C 64.820312 57.574219 64.847656 57.382812 64.867188 57.257812 Z M 68.496094 58.226562 C 68.875 58.132812 69.191406 58.019531 69.445312 57.878906 C 69.707031 57.738281 69.84375 57.667969 69.859375 57.667969 C 69.898438 57.667969 69.921875 57.703125 69.921875 57.773438 C 69.921875 57.84375 69.851562 57.929688 69.710938 58.035156 C 69.414062 58.253906 69.046875 58.4375 68.601562 58.59375 C 68.785156 59.285156 68.875 60.023438 68.875 60.800781 C 68.875 61.453125 68.804688 62.078125 68.65625 62.671875 C 68.570312 63.007812 68.4375 63.28125 68.253906 63.492188 C 68.078125 63.703125 67.859375 63.808594 67.601562 63.808594 C 67.375 63.808594 67.21875 63.710938 67.136719 63.511719 C 67.03125 63.28125 66.96875 63.0625 66.957031 62.851562 C 66.933594 62.523438 66.925781 61.984375 66.925781 61.242188 C 66.925781 60.5 66.980469 59.601562 67.09375 58.550781 C 66.839844 58.367188 66.714844 58.148438 66.714844 57.886719 C 66.714844 57.621094 66.769531 57.417969 66.882812 57.277344 C 66.996094 57.132812 67.136719 57.035156 67.304688 56.996094 C 67.402344 56.386719 67.5 55.859375 67.589844 55.417969 C 67.6875 54.976562 67.835938 54.617188 68.03125 54.34375 C 68.230469 54.066406 68.425781 53.925781 68.625 53.925781 C 68.847656 53.925781 68.960938 54.171875 68.960938 54.671875 C 68.960938 55.457031 68.667969 56.339844 68.085938 57.320312 C 68.234375 57.53125 68.371094 57.832031 68.496094 58.226562 Z M 67.757812 58.75 C 67.695312 59.613281 67.664062 60.605469 67.664062 61.726562 C 67.664062 62.839844 67.722656 63.398438 67.84375 63.398438 C 68.054688 63.398438 68.230469 63.125 68.371094 62.578125 C 68.511719 62.023438 68.582031 61.40625 68.582031 60.726562 C 68.582031 60.039062 68.503906 59.351562 68.347656 58.667969 C 68.136719 58.722656 67.941406 58.75 67.757812 58.75 Z M 67.917969 57.171875 C 68.121094 56.835938 68.308594 56.441406 68.476562 55.984375 C 68.644531 55.523438 68.730469 55.136719 68.730469 54.828125 C 68.730469 54.519531 68.699219 54.367188 68.632812 54.367188 C 68.523438 54.367188 68.398438 54.621094 68.265625 55.132812 C 68.136719 55.644531 68.023438 56.324219 67.917969 57.171875 Z M 67.917969 57.59375 L 67.851562 57.699219 L 67.800781 58.234375 C 67.890625 58.261719 67.972656 58.277344 68.042969 58.277344 C 68.121094 58.277344 68.183594 58.273438 68.234375 58.265625 C 68.140625 57.992188 68.035156 57.769531 67.917969 57.59375 Z M 67.261719 57.257812 C 67.15625 57.292969 67.105469 57.375 67.105469 57.5 C 67.105469 57.625 67.132812 57.734375 67.1875 57.824219 C 67.214844 57.574219 67.242188 57.382812 67.261719 57.257812 Z M 70.605469 60.496094 C 70.214844 60.496094 69.898438 60.347656 69.667969 60.054688 C 69.4375 59.753906 69.320312 59.414062 69.320312 59.035156 C 69.320312 58.269531 69.480469 57.691406 69.804688 57.300781 C 70.128906 56.90625 70.546875 56.710938 71.0625 56.710938 C 71.300781 56.710938 71.496094 56.777344 71.652344 56.910156 C 71.804688 57.035156 71.882812 57.210938 71.882812 57.4375 C 71.882812 57.855469 71.703125 58.210938 71.34375 58.5 C 70.992188 58.777344 70.5625 58.925781 70.046875 58.941406 C 70.074219 59.214844 70.167969 59.453125 70.320312 59.65625 C 70.484375 59.851562 70.671875 59.949219 70.882812 59.949219 C 71.09375 59.949219 71.28125 59.898438 71.449219 59.800781 C 71.621094 59.703125 71.773438 59.5625 71.914062 59.382812 C 72.210938 58.996094 72.464844 58.558594 72.675781 58.066406 C 72.730469 57.941406 72.773438 57.851562 72.800781 57.792969 C 72.835938 57.738281 72.871094 57.710938 72.90625 57.710938 C 72.949219 57.710938 72.96875 57.738281 72.96875 57.792969 C 72.96875 58.144531 72.757812 58.671875 72.328125 59.371094 C 71.863281 60.121094 71.289062 60.496094 70.605469 60.496094 Z M 70.046875 58.6875 C 70.460938 58.617188 70.765625 58.484375 70.957031 58.289062 C 71.152344 58.089844 71.25 57.835938 71.25 57.519531 C 71.25 57.203125 71.148438 57.046875 70.945312 57.046875 C 70.699219 57.046875 70.492188 57.21875 70.320312 57.5625 C 70.152344 57.898438 70.0625 58.273438 70.046875 58.6875 Z M 70.046875 58.6875 "/>
</g>
</svg>
